<?xml version="1.0" standalone="no"?>
<!DOCTYPE svg PUBLIC "-//W3C//DTD SVG 20010904//EN"
 "http://www.w3.org/TR/2001/REC-SVG-20010904/DTD/svg10.dtd">
<svg version="1.0" xmlns="http://www.w3.org/2000/svg"
 width="486.000000pt" height="486.000000pt" viewBox="0 0 486.000000 486.000000"
 preserveAspectRatio="xMidYMid meet">
<metadata>
Created by potrace 1.14, written by Peter Selinger 2001-2017
</metadata>
<g transform="translate(0.000000,486.000000) scale(0.100000,-0.100000)"
fill="#000000" stroke="none">
<path d="M0 4624 c0 -231 0 -235 20 -229 15 5 20 2 20 -10 0 -12 -6 -16 -20
-12 -20 5 -20 -3 -20 -1819 0 -1347 3 -1824 11 -1824 8 0 8 -5 -1 -15 -7 -9
-10 -18 -6 -22 9 -9 56 14 56 28 0 7 8 18 18 26 15 13 15 14 1 10 -15 -5 -15
-3 -2 24 9 17 22 29 34 29 16 0 18 5 14 27 -3 16 -2 22 1 16 7 -17 24 -17 24
0 0 6 14 20 30 29 17 9 30 24 30 33 0 20 46 38 68 26 9 -5 32 -6 51 -3 26 3
32 2 26 -8 -6 -9 -4 -11 4 -5 8 4 10 18 7 34 -6 25 -6 25 9 7 8 -11 15 -26 15
-34 0 -11 3 -12 13 -4 7 6 23 8 36 5 27 -7 73 15 63 31 -3 6 -7 22 -7 36 0 14
-4 31 -9 38 -11 18 -5 22 22 15 12 -3 22 -12 22 -19 0 -8 5 -14 10 -14 14 0
13 13 -2 28 -14 14 -11 17 20 27 16 5 22 3 20 -7 -2 -7 3 -12 10 -10 10 2 11
-4 6 -20 -6 -20 -5 -21 9 -9 9 7 16 16 15 19 -4 35 24 44 41 14 10 -16 10 -16
11 1 0 9 5 17 10 17 6 0 10 -4 10 -10 0 -5 8 -10 18 -10 14 0 15 2 2 10 -8 5
-13 10 -10 10 3 1 25 3 50 5 25 3 57 7 73 9 19 3 31 -2 41 -16 8 -11 17 -15
20 -10 3 5 15 12 26 15 11 3 18 1 15 -3 -3 -5 -1 -11 5 -15 5 -3 10 -2 10 4 0
6 12 14 28 17 15 4 30 12 34 18 5 7 8 4 8 -8 0 -15 5 -17 27 -11 46 12 86 11
90 -2 3 -7 -2 -13 -11 -13 -18 0 -20 -8 -7 -29 7 -11 13 -7 25 18 9 17 25 32
36 33 11 0 25 1 32 2 6 1 13 -5 16 -12 2 -8 -2 -10 -14 -5 -12 4 -15 3 -10 -5
4 -7 1 -12 -8 -12 -22 0 -20 -20 2 -21 9 0 31 -2 47 -4 17 -2 22 -1 13 2 -22
6 -23 19 -2 31 11 6 13 12 6 16 -8 4 -4 14 9 27 11 11 23 18 27 15 3 -4 0 -12
-6 -18 -18 -18 -14 -28 12 -28 15 0 26 7 29 20 3 13 0 20 -10 20 -9 0 -13 6
-9 15 4 11 -2 15 -20 15 -20 0 -25 4 -20 16 3 9 6 18 6 21 0 3 7 0 15 -7 13
-10 19 -10 33 4 26 23 32 20 32 -15 0 -22 5 -32 20 -36 28 -7 25 -17 -10 -30
-39 -15 -40 -34 0 -27 22 5 31 2 36 -10 3 -9 13 -16 21 -16 13 0 13 3 3 15
-10 12 -9 15 4 15 15 0 15 2 2 23 -14 21 -14 22 19 23 31 0 34 -2 29 -23 -4
-14 -2 -23 5 -23 6 0 11 4 11 10 0 5 7 7 15 4 12 -5 12 -9 -2 -30 -8 -13 -13
-24 -9 -24 3 0 18 18 32 40 15 22 30 37 35 34 5 -3 9 0 9 5 0 14 -16 14 -42 0
-25 -13 -35 -5 -18 16 8 10 9 15 1 15 -15 0 -14 16 2 32 8 6 11 22 9 35 -3 18
0 23 17 23 13 0 21 6 21 16 0 14 3 14 15 4 12 -10 15 -10 15 3 0 8 -5 17 -12
19 -6 2 -8 10 -4 16 9 14 36 16 36 3 0 -24 46 -3 80 36 69 79 118 219 122 351
1 37 5 52 15 52 10 0 11 5 3 19 -15 29 -13 64 3 58 8 -3 20 -2 27 3 9 6 7 10
-9 15 -21 6 -22 7 -4 21 23 17 34 18 27 0 -3 -7 2 -20 10 -29 9 -9 16 -20 16
-26 0 -6 10 -11 23 -11 13 0 29 -6 36 -12 11 -11 13 -10 8 5 -7 19 -8 19 50 2
21 -6 48 -59 38 -75 -3 -5 9 -13 27 -19 39 -14 38 -14 32 4 -9 23 26 32 41 11
9 -11 15 -13 20 -6 3 5 11 8 16 5 5 -4 15 -3 22 2 6 4 34 8 60 9 36 1 47 -2
43 -13 -4 -8 2 -13 16 -13 17 0 19 3 10 12 -17 17 -15 29 3 22 22 -9 18 13 -5
29 -13 9 -18 20 -14 31 6 16 -3 20 -38 17 -13 -2 -18 5 -18 26 0 15 5 35 10
43 8 13 11 12 24 -5 9 -11 16 -14 16 -7 0 19 80 16 80 -3 0 -8 4 -15 9 -15 15
0 24 -61 11 -73 -8 -9 -15 -8 -24 6 -12 16 -14 16 -20 1 -8 -21 -8 -24 5 -24
19 0 101 -41 95 -48 -14 -14 -49 -11 -61 4 -11 15 -13 14 -17 -9 -5 -24 -3
-26 18 -21 15 4 34 0 49 -10 14 -9 30 -14 35 -11 5 3 11 1 14 -4 4 -5 45 -8
91 -7 47 2 85 -1 85 -5 0 -5 15 0 33 11 17 11 42 20 53 20 12 0 24 7 28 15 4
12 10 13 31 3 14 -6 25 -15 25 -20 0 -4 5 -8 11 -8 6 0 9 7 5 15 -4 11 1 15
19 15 15 0 25 6 25 14 0 17 33 31 38 16 3 -8 8 -7 18 1 23 19 30 0 12 -31 -9
-16 -13 -32 -8 -35 8 -5 5 -180 -5 -243 -3 -20 -1 -32 6 -32 7 0 8 -7 4 -17
-13 -33 -8 -110 10 -150 15 -35 22 -40 53 -41 49 -2 72 -11 72 -29 0 -11 5 -9
19 8 23 28 36 20 27 -16 -5 -19 -11 -25 -24 -21 -15 5 -18 -1 -19 -36 -1 -24
3 -46 10 -51 9 -7 9 -10 -1 -14 -17 -7 -5 -23 19 -23 10 0 19 -5 19 -11 0 -6
-9 -8 -20 -4 -14 5 -20 2 -20 -9 0 -10 -9 -16 -25 -16 -14 0 -25 5 -25 10 0 6
-5 10 -12 10 -9 0 -9 -3 0 -12 7 -7 12 -20 12 -30 0 -10 5 -18 11 -18 9 0 7
-16 -8 -57 -4 -10 3 -11 26 -7 34 7 38 -1 16 -30 -19 -25 -19 -36 0 -36 8 0
15 7 15 15 0 8 5 15 10 15 6 0 10 -4 10 -8 0 -14 -23 -32 -41 -32 -9 0 -19 -6
-22 -13 -3 -9 5 -12 29 -9 19 2 42 1 51 -3 16 -6 15 -8 -7 -20 l-25 -13 28
-11 c16 -6 37 -11 48 -11 21 0 26 25 7 34 -7 3 -3 3 9 0 17 -4 21 -2 17 9 -6
17 12 32 21 17 11 -18 30 -11 42 17 10 21 10 28 1 34 -7 5 -9 11 -6 15 12 12
37 -22 27 -37 -13 -21 -11 -50 4 -48 26 3 47 -1 47 -11 0 -5 -12 -10 -27 -10
-17 0 -23 -3 -16 -8 9 -6 10 -22 4 -60 -9 -56 -5 -68 16 -51 14 13 18 -1 4
-16 -13 -15 -23 -65 -12 -65 5 0 9 -16 8 -37 -1 -23 3 -38 12 -41 9 -3 11 1 6
17 -3 11 0 35 9 53 8 18 15 54 15 80 0 26 7 62 15 82 8 19 11 38 8 42 -4 4 0
5 9 1 9 -3 22 0 28 6 8 8 11 8 11 -1 0 -7 7 -12 15 -12 7 0 19 -8 24 -17 6
-10 11 -13 11 -7 0 5 -5 15 -12 22 -9 9 -8 12 5 12 21 0 21 7 2 26 -13 14 -15
14 -15 0 0 -28 -24 -17 -68 29 -24 25 -48 45 -55 45 -8 0 -7 3 2 9 18 12 58
-3 89 -32 16 -15 25 -18 30 -10 4 6 21 15 37 19 17 4 35 11 41 15 13 11 16 72
3 63 -5 -3 -6 -10 -3 -16 5 -8 1 -9 -11 -4 -10 4 -21 2 -25 -4 -7 -12 -40 -3
-40 11 0 5 9 9 20 9 17 0 19 3 8 19 -9 15 -9 23 0 34 7 8 10 22 6 31 -7 19 0
20 27 5 12 -6 18 -17 15 -25 -4 -11 0 -14 12 -12 9 1 28 -6 42 -16 14 -10 18
-16 9 -13 -20 7 -19 -23 3 -54 l17 -24 -6 25 c-5 21 -3 23 8 12 7 -6 18 -12
24 -12 6 0 6 3 -1 8 -6 4 -15 18 -18 32 -7 24 -7 24 17 -5 14 -16 33 -31 44
-32 26 -2 81 -21 65 -22 -7 -1 -11 -5 -8 -10 4 -5 -1 -8 -10 -7 -8 1 -19 8
-23 14 -8 13 -71 12 -71 -1 0 -15 32 -20 41 -6 6 10 9 8 9 -9 0 -13 -4 -21 -9
-18 -5 3 -12 -1 -15 -10 -5 -13 -1 -15 19 -10 20 5 24 3 19 -11 -5 -17 -5 -17
8 -1 16 18 31 13 41 -15 4 -11 12 -15 19 -11 9 6 9 9 0 12 -7 2 -12 13 -12 25
1 22 1 22 17 2 12 -16 14 -16 10 -3 -3 10 -2 20 3 23 6 4 10 -1 10 -9 0 -9 7
-16 15 -16 22 0 18 -18 -5 -25 -11 -3 -20 -11 -20 -17 0 -7 5 -6 15 2 16 13
79 4 69 -11 -3 -5 2 -9 10 -9 18 0 21 -16 5 -26 -6 -3 -16 0 -21 7 -8 12 -9
11 -5 -1 2 -8 12 -15 23 -16 42 -1 52 -13 43 -52 -7 -29 -5 -40 7 -49 9 -6 14
-22 13 -35 -4 -28 17 -68 35 -68 9 0 12 -7 9 -19 -3 -13 2 -21 17 -26 19 -6
21 -12 16 -39 -3 -17 -13 -36 -22 -42 -17 -13 -32 -84 -18 -84 5 0 25 33 45
74 31 65 34 75 20 85 -14 10 -14 11 3 6 10 -3 29 2 42 10 13 9 25 13 25 10 1
-3 2 -9 3 -14 3 -24 16 -21 16 3 0 15 7 29 15 33 23 8 33 -7 12 -19 -17 -9
-18 -11 -1 -29 9 -10 21 -16 27 -12 5 3 7 1 3 -5 -3 -6 5 -19 19 -30 13 -11
21 -23 17 -26 -4 -4 1 -12 10 -17 10 -5 15 -16 12 -23 -3 -7 1 -20 8 -27 8 -8
14 -45 16 -88 2 -41 9 -92 17 -114 7 -21 11 -46 8 -53 -7 -18 77 -20 95 -2 10
10 17 10 32 0 11 -7 53 -12 96 -12 l77 0 -6 29 c-4 21 0 37 14 55 11 14 16 26
10 26 -6 0 -11 7 -11 16 0 11 -6 14 -22 9 -17 -6 -20 -4 -14 10 4 11 0 22 -11
31 -12 9 -14 13 -5 14 17 0 43 -25 35 -34 -4 -3 -1 -6 5 -6 7 0 12 5 12 10 0
6 5 10 11 10 5 0 7 -5 4 -10 -4 -6 0 -22 9 -35 20 -31 20 -31 -6 -39 -19 -5
-21 -8 -8 -16 10 -6 11 -10 3 -10 -7 0 -10 -7 -7 -15 8 -19 24 -20 24 -1 0 8
7 17 16 20 22 9 26 8 18 -6 -4 -6 -8 -22 -10 -35 -3 -26 22 -32 45 -10 11 9
14 9 18 0 3 -8 22 -13 44 -13 l39 0 0 49 c0 29 -5 51 -12 53 -6 2 -12 25 -13
50 -2 30 -11 58 -26 79 -15 22 -19 34 -11 37 7 2 12 19 12 38 0 31 2 34 19 24
11 -5 21 -20 24 -32 2 -13 4 8 5 45 0 57 -2 67 -15 63 -8 -3 -17 -6 -19 -6 -2
0 -4 -7 -4 -15 0 -18 -5 -19 -32 -4 -15 8 -19 8 -14 0 4 -6 0 -11 -8 -11 -9 0
-16 -4 -16 -10 0 -5 7 -10 15 -10 15 0 41 -48 31 -57 -2 -2 -13 6 -25 18 -23
25 -27 19 -11 -12 9 -15 7 -20 -7 -25 -46 -15 -48 -16 -35 -21 6 -3 12 -12 12
-20 0 -13 -3 -13 -15 -3 -8 7 -15 9 -15 6 0 -13 -27 20 -34 40 -5 16 0 22 26
29 41 13 57 38 40 65 -15 24 -15 30 -1 30 16 0 38 31 39 52 0 12 5 15 16 11
11 -4 15 -1 12 13 -2 14 3 19 20 18 13 -1 22 4 22 13 0 8 5 11 13 8 6 -4 1 2
-11 12 -13 11 -23 26 -21 34 3 19 -11 49 -24 49 -5 0 -2 -9 7 -19 12 -13 14
-21 6 -26 -6 -4 -9 -17 -6 -30 5 -20 2 -23 -29 -27 -25 -3 -35 0 -35 10 0 7
-5 10 -10 7 -6 -4 -8 -15 -5 -26 5 -14 2 -17 -8 -13 -8 3 -18 1 -22 -5 -3 -6
2 -11 12 -12 10 0 13 -3 5 -6 -6 -2 -12 -13 -12 -23 0 -27 -50 -33 -75 -10
-20 19 -21 19 -48 -3 -25 -20 -27 -24 -13 -42 13 -19 14 -18 9 8 -3 16 -1 27
6 27 6 0 11 -5 11 -11 0 -5 4 -8 8 -5 5 3 25 1 44 -5 29 -7 35 -13 31 -29 -3
-11 -9 -20 -14 -20 -4 0 -7 -12 -6 -26 1 -15 -4 -29 -12 -32 -9 -3 -11 0 -6 7
4 8 2 12 -6 10 -28 -3 -38 1 -33 16 4 8 1 15 -5 15 -6 0 -11 -9 -11 -20 0 -11
5 -20 10 -20 14 0 13 -37 -2 -46 -7 -5 -9 -2 -5 9 4 11 2 14 -7 11 -8 -3 -17
-1 -21 5 -3 6 -1 11 4 11 6 0 11 4 11 10 0 5 -7 7 -15 4 -9 -4 -18 1 -22 12
-3 11 -17 36 -30 57 -19 31 -21 38 -9 43 8 3 12 12 9 21 -5 14 -8 13 -20 -3
-7 -10 -13 -13 -13 -7 0 6 -3 20 -6 30 -4 12 -3 14 3 6 6 -9 9 -1 10 22 1 19
-3 35 -8 35 -5 0 -9 -6 -9 -14 0 -38 -23 -19 -77 61 -32 49 -62 90 -68 92 -5
1 -30 22 -55 44 -25 23 -69 62 -98 87 -29 24 -50 50 -48 57 3 7 1 15 -4 18 -4
3 -10 -1 -13 -7 -3 -10 -7 -10 -20 1 -9 7 -14 18 -10 24 4 6 1 7 -7 2 -7 -4
-15 -3 -19 2 -6 10 -118 83 -127 83 -3 0 -33 19 -67 42 -34 24 -64 43 -67 43
-16 3 -106 49 -112 59 -4 6 -8 7 -8 2 0 -5 -8 -2 -18 6 -9 8 -42 28 -72 44
-30 16 -57 32 -60 35 -3 3 -21 14 -40 24 -19 10 -42 22 -50 26 -8 5 -33 18
-55 30 -41 22 -100 65 -145 105 -64 58 -97 81 -122 88 -23 5 -28 13 -33 51 -8
48 0 170 15 256 31 170 38 200 54 221 40 56 69 103 98 161 38 77 34 72 54 57
22 -19 39 8 18 31 -18 20 -18 53 0 68 10 9 16 8 25 -3 7 -8 20 -12 29 -9 15 6
15 4 4 -9 -11 -14 -10 -18 9 -29 l23 -12 -27 -23 c-32 -27 -23 -37 24 -23 70
20 84 43 105 176 31 196 32 207 21 633 -3 118 -1 222 3 230 11 21 -8 108 -30
140 -10 14 -32 56 -50 94 -24 52 -31 79 -27 106 4 33 1 39 -25 54 -17 10 -27
24 -24 31 3 9 -6 16 -24 20 -20 4 -27 11 -23 21 4 10 -2 14 -21 14 -24 0 -26
4 -26 40 0 31 -3 38 -15 34 -8 -4 -15 -1 -15 5 0 6 -9 11 -19 11 -10 0 -21 7
-25 15 -3 8 -12 15 -21 15 -19 0 -35 39 -36 88 0 20 -3 30 -6 22 -15 -40 -44
-33 -63 15 -14 35 -29 46 -31 23 0 -7 -7 5 -15 27 -15 42 -34 68 -34 47 0 -17
-37 -15 -44 3 -3 8 -12 12 -20 9 -7 -3 -24 5 -36 18 -21 23 -39 27 -140 29
-85 2 -90 1 -99 -23 -8 -22 -8 -22 -40 10 -37 37 -45 40 -37 14 5 -15 0 -18
-31 -20 -20 -2 -40 -5 -44 -8 -4 -2 -14 5 -22 16 l-14 21 -6 -21 c-3 -13 -11
-18 -20 -14 -9 3 -21 -3 -29 -15 -19 -27 -74 -64 -134 -90 -26 -12 -54 -30
-61 -41 -8 -11 -28 -23 -46 -28 -19 -5 -37 -18 -44 -34 -7 -14 -26 -31 -43
-38 -16 -7 -30 -16 -30 -20 0 -4 -23 -29 -51 -56 -104 -99 -143 -145 -159
-192 -10 -26 -28 -74 -40 -107 -12 -33 -25 -69 -30 -80 -5 -11 -11 -36 -13
-55 -3 -19 -14 -78 -25 -130 -11 -52 -23 -117 -26 -144 -3 -27 -13 -63 -21
-79 -8 -17 -15 -35 -15 -42 0 -7 -7 -25 -15 -42 -8 -17 -19 -68 -25 -114 -5
-46 -16 -118 -24 -159 -24 -126 11 -233 80 -246 31 -6 39 -14 35 -37 -2 -14
22 -102 30 -111 5 -6 9 -19 9 -29 0 -11 9 -35 21 -54 19 -30 20 -43 15 -126
-11 -143 -36 -370 -44 -383 -17 -30 -87 -73 -152 -94 -38 -12 -70 -26 -70 -30
0 -9 -92 -41 -99 -35 -4 5 -8 176 -16 665 -9 544 -13 745 -15 750 -1 3 -1 10
0 15 5 19 -4 520 -15 915 -5 175 -9 219 -22 240 -14 22 -15 23 -1 12 14 -12
17 -6 20 50 2 35 -1 89 -7 120 -6 31 -7 54 -2 51 8 -5 0 187 -9 196 -2 2 -4
-3 -4 -12 0 -14 -3 -15 -19 -5 -23 14 -18 28 10 28 17 0 19 7 19 63 0 96 -9
137 -29 130 -10 -4 -7 2 7 15 20 18 23 28 20 74 -4 51 -5 53 -36 56 -25 3 -32
-1 -32 -15 -1 -17 -1 -17 -14 0 -17 22 -141 24 -170 2 -25 -19 -36 -19 -36 0
0 8 -7 15 -16 15 -8 0 -12 -4 -9 -10 3 -5 1 -10 -4 -10 -6 0 -11 -7 -11 -16 0
-8 -5 -12 -11 -8 -8 4 -8 9 0 17 6 6 11 14 11 18 0 4 -69 8 -154 8 -128 1
-157 -2 -170 -15 -14 -13 -16 -13 -16 -1 0 13 -35 16 -246 16 -186 1 -250 -2
-262 -11 -12 -10 -16 -10 -19 0 -3 8 -30 12 -89 12 l-84 0 0 -236z m585 216
c3 -6 -1 -7 -9 -4 -18 7 -21 14 -7 14 6 0 13 -4 16 -10z m70 0 c3 -5 1 -10 -4
-10 -6 0 -11 5 -11 10 0 6 2 10 4 10 3 0 8 -4 11 -10z m239 -11 c-3 -5 -10 -7
-15 -3 -5 3 -7 10 -3 15 3 5 10 7 15 3 5 -3 7 -10 3 -15z m326 -14 c-11 -13
-8 -15 16 -16 25 0 26 -1 9 -9 -26 -11 -28 -11 -45 0 -12 7 -12 12 5 29 21 24
35 20 15 -4z m-410 -17 c0 -5 -6 -8 -14 -8 -16 0 -38 24 -30 33 7 7 44 -14 44
-25z m-135 12 c-3 -5 -13 -10 -21 -10 -8 0 -12 5 -9 10 3 6 13 10 21 10 8 0
12 -4 9 -10z m445 -16 c0 -8 -4 -12 -10 -9 -5 3 -10 13 -10 21 0 8 5 12 10 9
6 -3 10 -13 10 -21z m-205 6 c3 -5 1 -10 -4 -10 -6 0 -11 5 -11 10 0 6 2 10 4
10 3 0 8 -4 11 -10z m55 1 c0 -5 -7 -11 -15 -15 -9 -3 -15 0 -15 9 0 8 7 15
15 15 8 0 15 -4 15 -9z m196 -28 c-10 -10 -19 5 -10 18 6 11 8 11 12 0 2 -7 1
-15 -2 -18z m105 -46 c-7 -7 -7 -14 0 -24 9 -10 8 -13 -4 -13 -10 0 -14 -6
-11 -15 9 -21 -10 -19 -31 5 -18 19 -17 20 3 20 13 0 22 6 22 16 0 8 -4 12
-10 9 -5 -3 -10 -1 -10 4 0 6 9 11 21 11 14 0 19 5 16 14 -3 8 -3 17 1 21 4 4
9 -3 10 -15 2 -12 -1 -27 -7 -33z m79 43 c0 -5 -5 -10 -11 -10 -5 0 -7 5 -4
10 3 6 8 10 11 10 2 0 4 -4 4 -10z m-1056 -49 c-6 -7 -44 31 -44 43 0 6 11 -1
24 -14 13 -14 22 -27 20 -29z m506 33 c0 -8 -4 -12 -10 -9 -5 3 -10 10 -10 16
0 5 5 9 10 9 6 0 10 -7 10 -16z m180 7 c0 -5 -9 -11 -20 -14 -11 -3 -20 -1
-20 3 0 5 8 11 18 13 9 3 18 5 20 6 1 0 2 -3 2 -8z m151 -6 c1 -17 -18 -17
-25 0 -4 11 -1 15 10 13 8 -2 15 -7 15 -13z m-821 -5 c0 -5 -4 -10 -10 -10 -5
0 -10 5 -10 10 0 6 5 10 10 10 6 0 10 -4 10 -10z m120 0 c0 -5 -2 -10 -4 -10
-3 0 -8 5 -11 10 -3 6 -1 10 4 10 6 0 11 -4 11 -10z m316 -16 c-11 -7 -22 -12
-25 -9 -2 3 4 12 15 19 10 8 21 12 24 9 3 -2 -4 -11 -14 -19z m437 -11 c-3 -7
-9 -13 -14 -13 -11 0 -12 34 -2 43 9 10 22 -13 16 -30z m137 27 c0 -5 -4 -10
-10 -10 -5 0 -10 5 -10 10 0 6 5 10 10 10 6 0 10 -4 10 -10z m-1260 -20 c0 -5
-2 -10 -4 -10 -3 0 -8 5 -11 10 -3 6 -1 10 4 10 6 0 11 -4 11 -10z m27 -12
c-3 -8 -6 -5 -6 6 -1 11 2 17 5 13 3 -3 4 -12 1 -19z m748 4 c-3 -3 -11 0 -18
7 -9 10 -8 11 6 5 10 -3 15 -9 12 -12z m-585 -2 c0 -5 -2 -10 -4 -10 -3 0 -8
5 -11 10 -3 6 -1 10 4 10 6 0 11 -4 11 -10z m685 -10 c-3 -5 -12 -7 -20 -3
-21 7 -19 13 6 13 11 0 18 -4 14 -10z m-245 -10 c0 -5 -4 -10 -10 -10 -5 0
-10 5 -10 10 0 6 5 10 10 10 6 0 10 -4 10 -10z m-107 -34 c-13 -17 -19 -20
-21 -10 -2 8 -9 15 -15 15 -7 1 2 5 18 9 17 4 31 8 33 9 2 0 -5 -10 -15 -23z
m-433 4 c0 -5 -5 -10 -11 -10 -5 0 -7 5 -4 10 3 6 8 10 11 10 2 0 4 -4 4 -10z
m751 -20 c5 0 9 -8 9 -17 -1 -17 -1 -17 -11 0 -5 9 -17 17 -24 17 -18 0 -20
17 -2 23 6 2 13 -2 15 -10 2 -7 8 -13 13 -13z m114 20 c-4 -6 -10 -8 -15 -5
-4 3 -10 -1 -13 -7 -2 -7 -8 -9 -13 -5 -5 4 -2 12 6 17 20 13 43 13 35 0z m32
-12 c-3 -8 -6 -5 -6 6 -1 11 2 17 5 13 3 -3 4 -12 1 -19z m240 0 c-3 -8 -6 -5
-6 6 -1 11 2 17 5 13 3 -3 4 -12 1 -19z m-1007 2 c0 -5 -5 -10 -11 -10 -5 0
-7 5 -4 10 3 6 8 10 11 10 2 0 4 -4 4 -10z m200 -6 c0 -8 -4 -12 -10 -9 -5 3
-10 10 -10 16 0 5 5 9 10 9 6 0 10 -7 10 -16z m650 1 c0 -8 7 -15 15 -15 9 0
12 -6 8 -17 -4 -11 -8 -12 -11 -5 -2 7 -12 12 -23 12 -21 0 -22 1 -13 24 8 20
24 21 24 1z m-46 -10 c-4 -8 -11 -15 -16 -15 -6 0 -5 6 2 15 7 8 14 15 16 15
2 0 1 -7 -2 -15z m-344 -5 c8 -5 11 -12 7 -16 -4 -4 -15 0 -24 9 -18 18 -8 23
17 7z m475 0 c-3 -5 -10 -10 -16 -10 -5 0 -9 5 -9 10 0 6 7 10 16 10 8 0 12
-4 9 -10z m135 -5 c0 -16 -9 -19 -34 -9 -25 9 -19 24 9 24 16 0 25 -6 25 -15z
m-560 -25 c8 -5 11 -10 5 -10 -5 0 -17 5 -25 10 -8 5 -10 10 -5 10 6 0 17 -5
25 -10z m40 0 c0 -5 -2 -10 -4 -10 -3 0 -8 5 -11 10 -3 6 -1 10 4 10 6 0 11
-4 11 -10z m140 2 c0 -10 -22 -32 -32 -32 -5 0 -3 9 4 20 13 20 28 27 28 12z
m-355 -12 c3 -5 1 -10 -4 -10 -6 0 -11 5 -11 10 0 6 2 10 4 10 3 0 8 -4 11
-10z m-209 -12 c4 -7 3 -8 -4 -4 -7 4 -12 2 -12 -3 0 -6 -5 -11 -11 -11 -8 0
-8 5 1 15 15 18 17 18 26 3z m314 2 c0 -5 -5 -10 -11 -10 -5 0 -7 5 -4 10 3 6
8 10 11 10 2 0 4 -4 4 -10z m100 -10 c0 -5 -2 -10 -4 -10 -3 0 -8 5 -11 10 -3
6 -1 10 4 10 6 0 11 -4 11 -10z m350 0 c0 -5 -4 -10 -9 -10 -6 0 -13 5 -16 10
-3 6 1 10 9 10 9 0 16 -4 16 -10z m37 -8 c-11 -12 -13 -22 -6 -33 6 -12 4 -21
-7 -29 -23 -20 -36 1 -19 33 7 15 12 27 9 27 -3 0 -2 5 1 10 3 6 13 10 22 10
15 0 15 -2 0 -18z m133 -11 c0 -11 -4 -23 -10 -26 -6 -4 -10 5 -10 19 0 14 5
26 10 26 6 0 10 -9 10 -19z m-730 -1 c0 -5 -8 -10 -17 -10 -15 0 -16 2 -3 10
19 12 20 12 20 0z m77 -7 c3 -7 -3 -9 -16 -6 -12 3 -21 10 -21 15 0 13 32 6
37 -9z m263 7 c0 -5 -4 -10 -10 -10 -5 0 -10 5 -10 10 0 6 5 10 10 10 6 0 10
-4 10 -10z m117 -7 c3 -9 -4 -10 -29 -2 -18 5 -34 9 -35 9 -2 0 -3 -10 -3 -22
0 -18 -2 -20 -10 -8 -14 22 9 41 43 38 17 -2 32 -8 34 -15z m68 7 c-3 -5 -16
-10 -28 -10 -18 0 -19 2 -7 10 20 13 43 13 35 0z m-875 -16 c0 -2 -9 -4 -20
-4 -11 0 -20 4 -20 9 0 5 9 7 20 4 11 -3 20 -7 20 -9z m530 -3 c0 -10 -6 -21
-14 -24 -11 -4 -11 -1 -2 19 13 29 16 30 16 5z m-346 -32 c-3 -5 -10 -7 -15
-3 -5 3 -7 10 -3 15 3 5 10 7 15 3 5 -3 7 -10 3 -15z m653 15 c-3 -3 -12 -4
-19 -1 -8 3 -5 6 6 6 11 1 17 -2 13 -5z m-397 -28 c0 -3 -4 -8 -10 -11 -5 -3
-10 -1 -10 4 0 6 5 11 10 11 6 0 10 -2 10 -4z m180 -6 c0 -5 -4 -10 -10 -10
-5 0 -10 5 -10 10 0 6 5 10 10 10 6 0 10 -4 10 -10z m203 -11 c4 -16 3 -18 -9
-8 -7 6 -11 15 -8 20 8 13 11 11 17 -12z m187 17 c0 -3 -4 -8 -10 -11 -5 -3
-10 -1 -10 4 0 6 5 11 10 11 6 0 10 -2 10 -4z m-445 -16 c3 -5 1 -10 -4 -10
-6 0 -11 5 -11 10 0 6 2 10 4 10 3 0 8 -4 11 -10z m135 -5 c-7 -9 -15 -13 -19
-10 -3 3 1 10 9 15 21 14 24 12 10 -5z m230 5 c0 -5 -7 -7 -15 -4 -8 4 -15 8
-15 10 0 2 7 4 15 4 8 0 15 -4 15 -10z m-545 -10 c3 -5 1 -10 -4 -10 -6 0 -11
5 -11 10 0 6 2 10 4 10 3 0 8 -4 11 -10z m485 -4 c0 -8 6 -16 13 -19 6 -2 9
-7 6 -11 -3 -3 -14 -4 -23 0 -17 7 -23 44 -6 44 6 0 10 -6 10 -14z m-75 -6 c4
-6 -5 -10 -20 -10 -15 0 -24 4 -20 10 3 6 12 10 20 10 8 0 17 -4 20 -10z m220
-11 c-4 -5 -16 -9 -28 -9 -20 0 -20 0 -2 14 21 15 40 12 30 -5z m-55 7 c0 -2
-7 -7 -16 -10 -8 -3 -12 -2 -9 4 6 10 25 14 25 6z m-756 -21 c-6 -16 -34 -21
-34 -7 0 13 11 22 26 22 8 0 11 -6 8 -15z m261 5 c3 -5 2 -10 -4 -10 -5 0 -13
5 -16 10 -3 6 -2 10 4 10 5 0 13 -4 16 -10z m375 -43 c0 -11 -5 -17 -12 -14
-7 2 -12 14 -10 27 2 17 -1 20 -10 13 -25 -19 -44 -21 -63 -6 -19 14 -18 15
13 11 20 -3 37 1 44 9 9 11 13 10 24 -4 7 -10 14 -26 14 -36z m-440 33 c0 -5
-4 -10 -10 -10 -5 0 -10 5 -10 10 0 6 5 10 10 10 6 0 10 -4 10 -10z m130 -25
c0 -5 -5 -3 -10 5 -5 8 -10 20 -10 25 0 6 5 3 10 -5 5 -8 10 -19 10 -25z
m-660 5 c0 -5 -7 -10 -16 -10 -8 0 -12 5 -9 10 3 6 10 10 16 10 5 0 9 -4 9
-10z m50 -11 c0 -5 -4 -9 -10 -9 -5 0 -10 7 -10 16 0 8 5 12 10 9 6 -3 10 -10
10 -16z m530 11 c0 -5 -4 -10 -10 -10 -5 0 -10 5 -10 10 0 6 5 10 10 10 6 0
10 -4 10 -10z m170 -10 c0 -5 -4 -10 -10 -10 -5 0 -10 5 -10 10 0 6 5 10 10
10 6 0 10 -4 10 -10z m450 -4 c0 -3 -4 -8 -10 -11 -5 -3 -10 -1 -10 4 0 6 5
11 10 11 6 0 10 -2 10 -4z m-917 -36 c3 -10 0 -24 -7 -29 -9 -7 -11 -3 -10 17
2 40 8 44 17 12z m952 10 c3 -5 1 -10 -4 -10 -6 0 -11 5 -11 10 0 6 2 10 4 10
3 0 8 -4 11 -10z m-885 -10 c0 -5 -4 -10 -10 -10 -5 0 -10 5 -10 10 0 6 5 10
10 10 6 0 10 -4 10 -10z m830 0 c0 -5 -5 -10 -11 -10 -5 0 -7 5 -4 10 3 6 8
10 11 10 2 0 4 -4 4 -10z m-523 -6 c-3 -3 -12 -4 -19 -1 -8 3 -5 6 6 6 11 1
17 -2 13 -5z m93 2 c0 -3 -4 -8 -10 -11 -5 -3 -10 -1 -10 4 0 6 5 11 10 11 6
0 10 -2 10 -4z m179 -22 c-13 -14 -25 -20 -27 -14 -5 15 17 40 36 40 12 0 10
-6 -9 -26z m-617 -16 c-7 -7 -12 -8 -12 -2 0 14 12 26 19 19 2 -3 -1 -11 -7
-17z m88 -13 c-7 -9 -23 -21 -34 -27 -15 -7 -12 -1 9 20 31 30 48 35 25 7z
m675 15 c3 -5 1 -10 -4 -10 -6 0 -11 5 -11 10 0 6 2 10 4 10 3 0 8 -4 11 -10z
m-19 -15 c17 -16 14 -18 -10 -9 -9 3 -16 10 -16 15 0 13 9 11 26 -6z m-976 -5
c0 -5 -4 -10 -10 -10 -5 0 -10 5 -10 10 0 6 5 10 10 10 6 0 10 -4 10 -10z
m902 3 c-9 -4 -10 -8 -2 -18 8 -9 8 -15 0 -20 -5 -3 -10 -2 -10 4 0 5 -3 16
-6 25 -4 11 -1 16 12 15 12 0 14 -3 6 -6z m-432 -13 c0 -5 -2 -10 -4 -10 -3 0
-8 5 -11 10 -3 6 -1 10 4 10 6 0 11 -4 11 -10z m150 -10 c0 -11 -4 -20 -9 -20
-5 0 -11 9 -14 20 -3 13 0 20 9 20 8 0 14 -9 14 -20z m205 10 c-3 -5 -11 -10
-16 -10 -6 0 -7 5 -4 10 3 6 11 10 16 10 6 0 7 -4 4 -10z m265 0 c0 -5 -4 -10
-10 -10 -5 0 -10 5 -10 10 0 6 5 10 10 10 6 0 10 -4 10 -10z m-150 -20 c0 -5
-4 -10 -10 -10 -5 0 -10 5 -10 10 0 6 5 10 10 10 6 0 10 -4 10 -10z m200 6 c0
-3 -4 -8 -10 -11 -5 -3 -10 -1 -10 4 0 6 5 11 10 11 6 0 10 -2 10 -4z m-560
-16 c0 -5 -4 -10 -10 -10 -5 0 -10 5 -10 10 0 6 5 10 10 10 6 0 10 -4 10 -10z
m253 -24 c-3 -4 -9 -2 -14 5 -6 10 -9 11 -9 2 0 -15 -26 -17 -35 -3 -3 6 1 7
9 4 9 -4 18 0 22 10 5 12 9 13 19 3 7 -7 11 -16 8 -21z m138 7 c11 -15 11 -16
-1 -6 -11 10 -16 9 -26 -5 -7 -9 -16 -13 -21 -9 -4 5 1 15 11 23 24 17 21 17
37 -3z m-506 -3 c-3 -5 -12 -10 -20 -10 -8 0 -17 5 -20 10 -4 6 5 10 20 10 15
0 24 -4 20 -10z m285 1 c0 -6 -4 -13 -10 -16 -5 -3 -10 1 -10 9 0 9 5 16 10
16 6 0 10 -4 10 -9z m-925 -21 c0 -7 -5 -15 -10 -17 -6 -2 -11 6 -11 17 0 11
5 19 11 17 5 -2 10 -10 10 -17z m55 4 c0 -8 -5 -12 -10 -9 -6 4 -8 11 -5 16 9
14 15 11 15 -7z m1255 -25 c-4 -13 -1 -19 9 -19 9 0 16 -9 16 -20 0 -11 -4
-20 -10 -20 -5 0 -10 8 -10 17 0 13 -3 14 -12 5 -8 -8 -16 -6 -30 10 -18 21
-24 48 -12 48 4 0 13 -8 21 -17 13 -16 14 -15 8 11 -6 26 -4 28 10 16 9 -7 13
-21 10 -31z m-135 16 c0 -9 -6 -12 -16 -8 -13 5 -13 7 -2 14 17 11 18 11 18
-6z m-52 -16 c-10 -5 -18 -18 -18 -27 -1 -16 -1 -16 -11 1 -13 22 -4 37 24 37
20 -1 20 -2 5 -11z m-208 -20 c0 -11 5 -17 10 -14 6 3 10 1 10 -4 0 -6 -8 -11
-17 -11 -12 0 -18 8 -19 25 -1 14 2 25 7 25 5 0 9 -9 9 -21z m80 11 c0 -5 -4
-10 -10 -10 -5 0 -10 -4 -10 -10 0 -5 7 -10 16 -10 9 0 14 -7 12 -17 -5 -29
-22 -24 -39 12 -15 31 -15 34 0 38 27 8 31 7 31 -3z m213 -8 c-6 -4 -15 -20
-18 -35 -8 -32 -21 -35 -28 -6 -4 15 -2 19 9 15 9 -3 14 1 14 13 0 11 6 21 13
24 16 6 24 -2 10 -11z m-593 -34 c0 -4 -9 -3 -20 4 -11 7 -20 19 -20 27 0 11
5 10 20 -4 11 -10 20 -22 20 -27z m621 9 c-13 -13 -26 -3 -16 12 3 6 11 8 17
5 6 -4 6 -10 -1 -17z m-96 -27 c21 -23 20 -25 -15 -35 -22 -7 -23 -6 -11 9 11
14 11 16 -2 16 -9 0 -23 -7 -31 -16 -21 -20 -20 -10 0 21 20 30 35 31 59 5z
m134 11 c7 -5 10 -14 7 -20 -10 -16 -26 -13 -26 5 0 9 -5 12 -12 8 -7 -4 -8
-3 -4 4 9 14 16 15 35 3z m-214 -22 c-3 -4 -12 -6 -20 -3 -8 4 -13 10 -10 15
3 4 12 6 20 3 8 -4 13 -10 10 -15z m-245 1 c0 -5 -2 -10 -4 -10 -3 0 -8 5 -11
10 -3 6 -1 10 4 10 6 0 11 -4 11 -10z m404 -5 c4 -10 -1 -15 -16 -15 -17 0
-18 2 -8 15 7 8 14 15 15 15 2 0 5 -7 9 -15z m-964 -14 c0 -5 -7 -11 -15 -15
-15 -5 -20 5 -8 17 9 10 23 9 23 -2z m320 -11 c0 -5 -2 -10 -4 -10 -3 0 -8 5
-11 10 -3 6 -1 10 4 10 6 0 11 -4 11 -10z m710 2 c0 -5 -11 -14 -25 -20 -14
-6 -25 -19 -25 -28 0 -8 -6 -14 -12 -11 -7 2 -12 12 -10 22 2 10 -1 14 -7 10
-6 -3 -11 1 -11 9 0 13 3 14 19 5 14 -10 23 -9 42 4 27 19 29 20 29 9z m-584
-26 c1 -1 5 -12 9 -26 l8 -25 -19 23 c-18 22 -21 22 -48 8 -38 -19 -56 -9 -25
15 16 12 33 16 49 12 14 -3 26 -6 26 -7z m407 2 c4 -10 7 -10 18 0 7 6 24 12
37 12 21 0 23 -2 12 -15 -7 -9 -20 -13 -28 -10 -9 3 -18 1 -22 -5 -4 -7 -16
-7 -38 1 -18 6 -29 15 -26 20 8 13 42 11 47 -3z m-636 -20 c-3 -8 -6 -5 -6 6
-1 11 2 17 5 13 3 -3 4 -12 1 -19z m348 12 c3 -5 1 -10 -4 -10 -6 0 -11 5 -11
10 0 6 2 10 4 10 3 0 8 -4 11 -10z m-495 -10 c0 -5 -4 -10 -10 -10 -5 0 -10 5
-10 10 0 6 5 10 10 10 6 0 10 -4 10 -10z m270 -4 c0 -3 -4 -8 -10 -11 -5 -3
-10 -1 -10 4 0 6 5 11 10 11 6 0 10 -2 10 -4z m-210 -16 c0 -5 -7 -7 -15 -4
-8 4 -15 8 -15 10 0 2 7 4 15 4 8 0 15 -4 15 -10z m670 -12 c0 -6 -6 -5 -15 2
-8 7 -15 14 -15 16 0 2 7 1 15 -2 8 -4 15 -11 15 -16z m-865 2 c3 -5 1 -10 -4
-10 -6 0 -11 5 -11 10 0 6 2 10 4 10 3 0 8 -4 11 -10z m475 0 c0 -5 -2 -10 -4
-10 -3 0 -8 5 -11 10 -3 6 -1 10 4 10 6 0 11 -4 11 -10z m350 -27 c13 -11 10
-12 -17 -7 -25 5 -34 3 -39 -10 -3 -9 -11 -13 -17 -9 -6 4 -3 11 8 19 15 11
16 16 5 29 -12 15 -10 15 16 4 16 -7 36 -19 44 -26z m-745 7 c-3 -5 -12 -10
-18 -10 -7 0 -6 4 3 10 19 12 23 12 15 0z m818 -27 c-6 -15 -23 -18 -23 -4 0
5 3 17 6 26 5 12 9 14 14 4 5 -7 6 -18 3 -26z m167 27 c0 -5 -2 -10 -4 -10 -3
0 -8 5 -11 10 -3 6 -1 10 4 10 6 0 11 -4 11 -10z m-450 -10 c0 -5 -15 -10 -32
-9 -31 1 -32 1 -8 9 35 11 40 11 40 0z m348 -25 c-3 -3 -9 2 -12 12 -6 14 -5
15 5 6 7 -7 10 -15 7 -18z m-872 6 c-4 -5 0 -11 6 -14 7 -2 10 -8 5 -12 -10
-12 -31 11 -23 24 4 6 9 11 12 11 3 0 3 -4 0 -9z m1004 5 c0 -3 -4 -8 -10 -11
-5 -3 -10 -1 -10 4 0 6 5 11 10 11 6 0 10 -2 10 -4z m-723 -28 c-3 -8 -6 -5
-6 6 -1 11 2 17 5 13 3 -3 4 -12 1 -19z m298 2 c3 -6 -1 -7 -9 -4 -18 7 -21
14 -7 14 6 0 13 -4 16 -10z m415 -20 c0 -5 -7 -10 -15 -10 -8 0 -15 5 -15 10
0 6 7 10 15 10 8 0 15 -4 15 -10z m-415 -10 c3 -6 -1 -7 -9 -4 -18 7 -21 14
-7 14 6 0 13 -4 16 -10z m-221 -9 c7 -11 -22 -23 -35 -15 -5 3 -9 9 -9 15 0
12 37 12 44 0z m-264 -11 c0 -5 -2 -10 -4 -10 -3 0 -8 5 -11 10 -3 6 -1 10 4
10 6 0 11 -4 11 -10z m505 -9 c3 -5 1 -12 -5 -16 -5 -3 -10 1 -10 9 0 18 6 21
15 7z m115 -1 c0 -5 -5 -10 -11 -10 -5 0 -7 5 -4 10 3 6 8 10 11 10 2 0 4 -4
4 -10z m132 -22 c-9 -9 -12 -7 -12 12 0 19 3 21 12 12 9 -9 9 -15 0 -24z m60
10 c-6 -6 -16 -7 -22 -3 -9 6 -9 9 1 16 17 10 34 0 21 -13z m-972 -4 c0 -8 -4
-12 -10 -9 -5 3 -10 10 -10 16 0 5 5 9 10 9 6 0 10 -7 10 -16z m640 -4 c0 -5
-4 -10 -10 -10 -5 0 -10 5 -10 10 0 6 5 10 10 10 6 0 10 -4 10 -10z m-390 -10
c0 -5 -4 -10 -10 -10 -5 0 -10 5 -10 10 0 6 5 10 10 10 6 0 10 -4 10 -10z
m-271 -9 c9 -6 10 -11 2 -15 -13 -8 -31 1 -31 15 0 11 11 11 29 0z m1056 -11
c3 -5 1 -10 -4 -10 -6 0 -11 5 -11 10 0 6 2 10 4 10 3 0 8 -4 11 -10z m40 0
c3 -5 1 -10 -4 -10 -6 0 -11 5 -11 10 0 6 2 10 4 10 3 0 8 -4 11 -10z m-923
-22 c-7 -7 -12 -8 -12 -2 0 14 12 26 19 19 2 -3 -1 -11 -7 -17z m968 2 c0 -5
-4 -10 -10 -10 -5 0 -10 5 -10 10 0 6 5 10 10 10 6 0 10 -4 10 -10z m-715 -9
c-3 -5 2 -17 11 -26 9 -9 14 -18 11 -21 -9 -9 -27 6 -27 22 0 8 -5 14 -11 14
-5 0 -7 5 -4 10 3 6 11 10 16 10 6 0 8 -4 4 -9z m2020 -7 c22 -4 45 -8 50 -9
59 -8 88 -20 97 -41 6 -13 16 -24 21 -24 5 0 4 -6 -2 -14 -10 -12 -8 -17 8
-26 12 -6 21 -8 21 -4 0 3 7 1 15 -6 8 -6 18 -9 24 -6 5 4 16 -1 24 -9 9 -8
23 -12 31 -9 10 4 16 1 16 -9 0 -10 7 -13 18 -10 12 3 22 -4 30 -21 6 -14 16
-26 22 -26 5 0 10 -7 10 -16 0 -8 5 -12 11 -9 15 10 40 -26 34 -50 -3 -14 6
-30 25 -49 30 -28 32 -50 5 -39 -22 8 -18 -10 5 -25 11 -7 20 -19 20 -27 0 -8
8 -18 18 -24 13 -7 14 -13 5 -22 -6 -6 -9 -18 -6 -27 5 -13 -1 -14 -43 -8
-157 21 -203 25 -253 20 -31 -3 -57 -9 -59 -14 -2 -6 -10 -10 -19 -10 -10 0
-12 -6 -7 -22 3 -13 9 -25 11 -28 3 -3 44 -6 93 -6 48 -1 93 -5 99 -9 6 -3 33
-8 58 -9 26 -2 49 -8 51 -15 2 -6 22 -21 44 -32 37 -19 68 -67 60 -93 -2 -5 2
-12 8 -16 18 -11 25 -90 10 -100 -11 -7 -11 -11 -1 -24 13 -16 9 -46 -7 -46
-5 0 -28 39 -52 86 -46 90 -67 111 -145 144 -49 21 -65 19 -65 -7 0 -11 -6
-14 -22 -8 -13 3 -28 7 -35 7 -7 1 -10 5 -7 10 3 4 -4 8 -15 8 -23 0 -28 15
-8 23 6 3 -2 6 -19 6 -17 1 -52 -10 -78 -24 -55 -29 -56 -29 -56 -10 0 8 -6
12 -14 9 -10 -4 -16 4 -21 25 -3 16 -13 35 -20 41 -19 16 -58 3 -51 -17 3 -8
1 -23 -4 -33 -6 -10 -6 -21 -1 -24 4 -3 11 -23 14 -43 4 -21 15 -56 26 -78 20
-42 84 -115 100 -115 5 0 12 -6 14 -12 4 -9 6 -8 6 2 1 9 -15 40 -34 70 -43
67 -45 83 -8 74 15 -4 34 -7 42 -7 8 0 23 -9 33 -19 18 -18 139 -78 158 -78 6
0 10 -4 10 -10 0 -5 5 -10 10 -10 6 0 10 9 10 20 0 10 9 24 20 30 35 19 22 27
-42 27 -64 -1 -126 19 -118 38 3 6 50 10 109 11 148 0 171 -13 229 -128 37
-73 42 -91 32 -103 -16 -19 -60 -20 -60 -1 0 8 -7 16 -15 20 -17 6 -18 3 -6
-22 25 -50 44 -126 52 -202 15 -143 16 -200 6 -200 -5 0 -7 -14 -5 -30 3 -18
-1 -35 -9 -41 -7 -6 -13 -24 -13 -40 0 -15 -8 -43 -19 -61 -10 -18 -25 -54
-32 -80 -12 -45 -28 -64 -29 -35 -1 6 -8 0 -16 -15 -8 -16 -21 -28 -29 -28 -8
0 -15 -6 -15 -14 0 -14 -21 -26 -47 -26 -8 0 -21 -7 -30 -15 -8 -9 -18 -13
-21 -10 -4 3 0 10 8 15 13 8 12 10 -2 10 -12 0 -18 10 -20 33 -3 30 -6 32 -43
35 -22 2 -55 10 -72 18 -29 13 -35 13 -57 -1 -14 -9 -22 -23 -20 -30 3 -8 -1
-29 -9 -47 -8 -18 -17 -41 -21 -50 -3 -11 -15 -18 -31 -18 -14 0 -25 -5 -25
-11 0 -6 -15 -8 -44 -4 -28 5 -46 3 -50 -4 -4 -6 -18 -11 -32 -11 -19 0 -24 5
-24 25 0 27 -15 34 -24 10 -4 -10 -18 -14 -48 -12 -24 1 -46 5 -49 10 -3 4
-21 8 -40 9 -20 1 -49 14 -71 30 -20 15 -46 28 -58 28 -11 0 -24 8 -27 18 -4
9 -11 20 -17 24 -6 4 -4 14 8 27 24 26 14 51 -19 51 -15 0 -35 5 -46 10 -16 9
-19 7 -19 -8 0 -10 -6 -27 -14 -37 -11 -15 -17 -17 -28 -7 -8 6 -19 8 -24 4
-5 -4 2 5 15 21 14 15 23 27 20 28 -34 8 -80 6 -76 -4 2 -6 -3 -18 -10 -25
-11 -11 -19 -12 -42 -2 -21 8 -37 29 -60 78 -17 37 -31 63 -31 58 0 -19 -38
42 -53 84 -14 44 -17 105 -5 125 12 22 18 65 8 65 -5 0 -10 5 -10 10 0 6 7 10
15 10 9 0 15 9 15 23 0 12 7 32 15 44 13 19 13 22 -3 28 -16 6 -16 7 1 16 9 6
17 18 17 28 0 10 6 24 14 31 8 6 13 17 10 24 -3 7 2 26 11 42 8 16 15 34 15
40 0 6 11 17 25 24 14 7 25 20 25 27 0 8 14 27 30 43 17 16 30 32 30 35 0 12
-46 -8 -71 -31 -14 -13 -28 -21 -32 -17 -10 10 -8 61 3 68 5 3 9 20 8 38 -1
38 17 123 39 185 17 46 54 82 84 82 10 0 23 9 29 20 6 11 15 18 20 15 6 -3 7
0 4 8 -11 29 174 26 211 -3 6 -4 27 -10 47 -14 36 -7 37 -6 49 34 11 36 10 43
-5 58 -15 15 -38 17 -181 15 -91 -1 -166 2 -166 5 -6 33 -4 52 6 52 6 0 22 18
34 40 12 22 19 39 14 38 -4 -2 -10 2 -12 7 -3 6 8 12 25 15 23 5 28 10 26 29
-2 20 0 22 13 11 13 -10 15 -9 15 8 0 15 5 19 19 15 14 -3 21 3 29 24 6 15 11
22 11 16 1 -11 31 -20 31 -9 0 2 3 12 6 20 5 12 2 15 -10 10 -29 -11 -16 4 30
35 50 34 60 37 68 19 5 -10 7 -10 12 0 3 6 17 12 30 12 13 0 24 5 24 10 0 6
-5 10 -11 10 -5 0 -8 4 -5 8 3 5 15 8 28 7 17 -1 22 -7 20 -23 -2 -12 2 -22 7
-22 6 0 11 8 11 18 0 15 9 19 51 20 29 0 57 6 63 12 10 10 26 9 111 -6z
m-2425 2 c0 -3 -4 -8 -10 -11 -5 -3 -10 -1 -10 4 0 6 5 11 10 11 6 0 10 -2 10
-4z m584 -14 c2 -4 -7 -12 -20 -19 -26 -12 -32 -5 -12 15 14 14 25 15 32 4z
m106 -2 c0 -5 -5 -10 -11 -10 -5 0 -7 5 -4 10 3 6 8 10 11 10 2 0 4 -4 4 -10z
m2310 -10 c0 -5 -5 -10 -11 -10 -5 0 -7 5 -4 10 3 6 8 10 11 10 2 0 4 -4 4
-10z m-2763 -6 c-3 -3 -12 -4 -19 -1 -8 3 -5 6 6 6 11 1 17 -2 13 -5z m733 -4
c0 -5 -5 -10 -11 -10 -5 0 -7 5 -4 10 3 6 8 10 11 10 2 0 4 -4 4 -10z m67 -6
c-3 -3 -12 -4 -19 -1 -8 3 -5 6 6 6 11 1 17 -2 13 -5z m-407 -14 c0 -5 -4 -10
-10 -10 -5 0 -10 5 -10 10 0 6 5 10 10 10 6 0 10 -4 10 -10z m490 -10 c0 -11
-4 -20 -8 -20 -4 0 -8 9 -8 20 0 11 4 20 8 20 4 0 8 -9 8 -20z m-290 -14 c0
-8 -6 -19 -14 -25 -10 -9 -15 -8 -20 4 -3 8 -1 15 4 15 6 0 10 7 10 16 0 8 5
12 10 9 6 -3 10 -12 10 -19z m-604 -33 c-10 -10 -19 5 -10 18 6 11 8 11 12 0
2 -7 1 -15 -2 -18z m739 17 c-3 -5 -10 -10 -16 -10 -5 0 -9 5 -9 10 0 6 7 10
16 10 8 0 12 -4 9 -10z m51 -27 c-6 -14 -9 -15 -16 -4 -11 19 -1 46 13 32 5
-5 7 -18 3 -28z m-1016 23 c0 -3 -4 -8 -10 -11 -5 -3 -10 -1 -10 4 0 6 5 11
10 11 6 0 10 -2 10 -4z m651 -9 c-1 -12 -15 -9 -19 4 -3 6 1 10 8 8 6 -3 11
-8 11 -12z m-151 -7 c0 -5 -10 -10 -22 -9 -22 0 -22 1 -3 9 11 5 21 9 23 9 1
1 2 -3 2 -9z m300 -37 c0 -2 -12 -3 -27 -3 -23 0 -28 5 -29 25 l-2 24 29 -21
c16 -12 29 -23 29 -25z m310 39 c0 -4 -5 -13 -12 -20 -9 -9 -9 -12 0 -12 7 0
12 -4 12 -10 0 -15 -17 -12 -24 5 -6 18 2 45 15 45 5 0 9 -4 9 -8z m-140 -22
c0 -5 -5 -10 -11 -10 -5 0 -7 5 -4 10 3 6 8 10 11 10 2 0 4 -4 4 -10z m-573
-32 c-3 -7 -5 -2 -5 12 0 14 2 19 5 13 2 -7 2 -19 0 -25z m-240 7 c0 -8 -4
-15 -9 -15 -4 0 -8 7 -8 15 0 8 4 15 8 15 5 0 9 -7 9 -15z m-357 -5 c0 -5 -4
-10 -10 -10 -5 0 -10 5 -10 10 0 6 5 10 10 10 6 0 10 -4 10 -10z m820 -5 c14
-16 10 -18 -14 -9 -9 3 -16 10 -16 15 0 14 16 11 30 -6z m75 5 c3 -5 -3 -10
-15 -10 -12 0 -18 5 -15 10 3 6 10 10 15 10 5 0 12 -4 15 -10z m358 -10 c26
-31 20 -52 -9 -32 -14 9 -28 52 -17 52 5 0 16 -9 26 -20z m-540 -5 c-3 -9 -8
-14 -10 -11 -3 3 -2 9 2 15 9 16 15 13 8 -4z m-676 -17 c-3 -8 -6 -5 -6 6 -1
11 2 17 5 13 3 -3 4 -12 1 -19z m893 1 c0 -6 -4 -7 -10 -4 -5 3 -10 11 -10 16
0 6 5 7 10 4 6 -3 10 -11 10 -16z m70 11 c0 -5 -5 -10 -11 -10 -5 0 -7 5 -4
10 3 6 8 10 11 10 2 0 4 -4 4 -10z m-735 -10 c3 -5 -1 -10 -10 -10 -9 0 -13 5
-10 10 3 6 8 10 10 10 2 0 7 -4 10 -10z m245 6 c0 -11 -19 -15 -25 -6 -3 5 1
10 9 10 9 0 16 -2 16 -4z m590 0 c0 -3 -4 -8 -10 -11 -5 -3 -10 -1 -10 4 0 6
5 11 10 11 6 0 10 -2 10 -4z m-300 -31 c0 -8 -4 -15 -10 -15 -5 0 -10 7 -10
15 0 8 5 15 10 15 6 0 10 -7 10 -15z m-820 -10 c11 -13 10 -14 -4 -9 -9 3 -16
10 -16 15 0 13 6 11 20 -6z m340 5 c0 -5 -2 -10 -4 -10 -3 0 -8 5 -11 10 -3 6
-1 10 4 10 6 0 11 -4 11 -10z m685 -10 c3 -5 2 -10 -4 -10 -5 0 -13 5 -16 10
-3 6 -2 10 4 10 5 0 13 -4 16 -10z m-320 -20 c-28 -12 -37 -12 -30 0 3 6 16
10 28 9 21 0 21 -1 2 -9z m223 -19 c3 -8 -1 -12 -9 -9 -7 2 -15 10 -17 17 -3
8 1 12 9 9 7 -2 15 -10 17 -17z m272 4 c7 -9 8 -15 2 -15 -5 0 -12 7 -16 15
-3 8 -4 15 -2 15 2 0 9 -7 16 -15z m60 5 c0 -5 -4 -10 -10 -10 -5 0 -10 5 -10
10 0 6 5 10 10 10 6 0 10 -4 10 -10z m770 0 c0 -5 -2 -10 -4 -10 -3 0 -8 5
-11 10 -3 6 -1 10 4 10 6 0 11 -4 11 -10z m-940 -49 c0 -12 -20 -25 -27 -18
-7 7 6 27 18 27 5 0 9 -4 9 -9z m-120 -11 c0 -5 -5 -10 -11 -10 -5 0 -7 5 -4
10 3 6 8 10 11 10 2 0 4 -4 4 -10z m60 -10 c-8 -6 -22 -10 -30 -10 -8 0 -4 6
10 13 27 15 44 12 20 -3z m-845 1 c3 -5 1 -12 -4 -15 -5 -3 -11 1 -15 9 -6 16
9 21 19 6z m961 -28 c-11 -11 -19 6 -11 24 8 17 8 17 12 0 3 -10 2 -21 -1 -24z
m-26 17 c0 -5 -5 -10 -11 -10 -5 0 -7 5 -4 10 3 6 8 10 11 10 2 0 4 -4 4 -10z
m-295 -10 c3 -5 -1 -10 -9 -10 -9 0 -16 5 -16 10 0 6 4 10 9 10 6 0 13 -4 16
-10z m355 0 c0 -5 -2 -10 -4 -10 -3 0 -8 5 -11 10 -3 6 -1 10 4 10 6 0 11 -4
11 -10z m-450 -4 c0 -3 -4 -8 -10 -11 -5 -3 -10 -1 -10 4 0 6 5 11 10 11 6 0
10 -2 10 -4z m145 -16 c3 -5 1 -10 -4 -10 -6 0 -11 5 -11 10 0 6 2 10 4 10 3
0 8 -4 11 -10z m245 0 c0 -5 -4 -10 -10 -10 -5 0 -10 5 -10 10 0 6 5 10 10 10
6 0 10 -4 10 -10z m-763 -20 c3 -10 2 -11 -4 -4 -4 6 -15 14 -23 17 -11 5 -9
6 4 4 11 -1 21 -9 23 -17z m333 16 c0 -3 -4 -8 -10 -11 -5 -3 -10 -1 -10 4 0
6 5 11 10 11 6 0 10 -2 10 -4z m305 -16 c3 -5 1 -10 -4 -10 -6 0 -11 5 -11 10
0 6 2 10 4 10 3 0 8 -4 11 -10z m305 -20 c0 -5 -4 -10 -9 -10 -6 0 -13 5 -16
10 -3 6 1 10 9 10 9 0 16 -4 16 -10z m-621 -37 c0 -25 -1 -25 -8 -8 -5 11 -7
23 -4 28 8 14 13 7 12 -20z m381 7 c0 -5 -5 -10 -11 -10 -5 0 -7 5 -4 10 3 6
8 10 11 10 2 0 4 -4 4 -10z m190 -10 c0 -5 -4 -10 -10 -10 -5 0 -10 5 -10 10
0 6 5 10 10 10 6 0 10 -4 10 -10z m-1020 -49 c0 -11 -31 -24 -39 -16 -3 3 1
10 9 15 19 12 30 12 30 1z m780 -1 c13 -9 13 -11 1 -19 -13 -8 -41 7 -41 23 0
9 24 7 40 -4z m-133 -6 c-3 -3 -12 -4 -19 -1 -8 3 -5 6 6 6 11 1 17 -2 13 -5z
m303 -34 c0 -5 -5 -10 -11 -10 -5 0 -7 5 -4 10 3 6 8 10 11 10 2 0 4 -4 4 -10z
m115 0 c3 -6 -1 -7 -9 -4 -18 7 -21 14 -7 14 6 0 13 -4 16 -10z m-455 -71 c0
-5 -7 -9 -15 -9 -8 0 -15 7 -15 15 0 9 6 12 15 9 8 -4 15 -10 15 -15z m65 -19
c3 -5 1 -10 -4 -10 -6 0 -11 5 -11 10 0 6 2 10 4 10 3 0 8 -4 11 -10z m255
-20 c0 -5 -5 -10 -11 -10 -5 0 -7 5 -4 10 3 6 8 10 11 10 2 0 4 -4 4 -10z
m-175 -10 c3 -5 1 -10 -4 -10 -6 0 -11 5 -11 10 0 6 2 10 4 10 3 0 8 -4 11
-10z m255 -34 c0 -3 -4 -8 -10 -11 -5 -3 -10 -1 -10 4 0 6 5 11 10 11 6 0 10
-2 10 -4z m-240 -26 c0 -5 -5 -10 -11 -10 -5 0 -7 5 -4 10 3 6 8 10 11 10 2 0
4 -4 4 -10z m85 -20 c8 0 15 -7 15 -15 0 -8 -3 -15 -8 -15 -11 0 -42 38 -42
53 0 6 5 4 11 -5 5 -10 17 -18 24 -18z m1735 20 c0 -5 -10 -10 -22 -10 -19 0
-20 2 -8 10 19 13 30 13 30 0z m-1700 -10 c0 -5 -2 -10 -4 -10 -3 0 -8 5 -11
10 -3 6 -1 10 4 10 6 0 11 -4 11 -10z m-25 -59 c3 -5 1 -12 -5 -16 -5 -3 -10
1 -10 9 0 18 6 21 15 7z m-1085 -31 c0 -5 -2 -10 -4 -10 -3 0 -8 5 -11 10 -3
6 -1 10 4 10 6 0 11 -4 11 -10z m860 -120 c0 -5 -4 -10 -10 -10 -5 0 -10 5
-10 10 0 6 5 10 10 10 6 0 10 -4 10 -10z m810 -49 c0 -24 -23 -78 -50 -116
l-21 -30 3 69 c3 53 8 72 23 82 26 19 45 17 45 -5z m-713 -16 c9 -25 -4 -29
-17 -6 -7 15 -7 21 0 21 6 0 13 -7 17 -15z m-27 -25 c0 -5 -4 -10 -10 -10 -5
0 -10 5 -10 10 0 6 5 10 10 10 6 0 10 -4 10 -10z m233 -10 c-3 -11 -12 -20
-20 -20 -11 0 -11 4 -3 20 6 11 15 20 19 20 5 0 7 -9 4 -20z m533 -17 c-4 -16
-9 -49 -13 -75 -7 -57 -23 -74 -52 -58 -15 8 -19 15 -12 28 5 9 21 43 37 75
30 60 51 76 40 30z m-647 -104 c-16 -10 -23 -4 -14 10 3 6 11 8 17 5 6 -4 5
-9 -3 -15z m2298 -44 c-4 -8 -11 -15 -17 -15 -7 0 -7 6 0 21 13 23 26 19 17
-6z m120 -27 c-1 -29 -6 -52 -12 -50 -5 2 -13 -6 -17 -18 -4 -12 -12 -18 -18
-15 -11 7 -13 85 -2 100 6 8 40 32 49 34 2 1 2 -23 0 -51z m-1789 -7 c2 -14
-6 -33 -19 -47 -24 -25 -20 -45 5 -25 18 15 24 1 18 -41 -3 -22 -10 -28 -28
-28 -16 0 -25 6 -26 18 0 9 -3 31 -4 47 -8 65 -6 79 12 92 24 17 38 12 42 -16z
m1703 -46 c22 -57 22 -118 -1 -123 -8 -1 -28 9 -45 22 -26 22 -29 27 -17 45 6
11 12 41 12 67 0 62 25 57 51 -11z m-21 -196 c0 -27 -4 -49 -10 -49 -5 0 -10
9 -10 20 0 10 -9 24 -20 30 -25 13 -26 46 -3 59 28 15 43 -6 43 -60z m-2350
-160 c0 -5 -4 -9 -10 -9 -5 0 -10 7 -10 16 0 8 5 12 10 9 6 -3 10 -10 10 -16z
m-310 -29 c0 -5 -4 -10 -10 -10 -5 0 -10 5 -10 10 0 6 5 10 10 10 6 0 10 -4
10 -10z m2090 -70 c0 -5 -4 -10 -10 -10 -5 0 -10 5 -10 10 0 6 5 10 10 10 6 0
10 -4 10 -10z m-968 -118 c3 -11 0 -19 -7 -19 -7 0 -10 8 -7 19 2 10 6 18 7
18 1 0 5 -8 7 -18z m152 -103 c-9 -15 -44 10 -37 27 5 13 8 13 24 -2 10 -9 16
-21 13 -25z m456 -64 c0 -8 -2 -15 -4 -15 -2 0 -6 7 -10 15 -3 8 -1 15 4 15 6
0 10 -7 10 -15z m-382 -28 c5 -24 -15 -21 -21 4 -3 13 -1 19 6 16 7 -2 13 -11
15 -20z m216 14 c3 -5 0 -11 -8 -14 -15 -6 -26 1 -26 15 0 11 27 10 34 -1z
m-644 -336 c0 -8 -7 -15 -16 -15 -14 0 -14 3 -4 15 7 8 14 15 16 15 2 0 4 -7
4 -15z m-340 -134 c0 -4 -7 -8 -15 -8 -8 0 -15 6 -15 13 0 8 6 11 15 8 8 -4
15 -9 15 -13z m-130 -31 c0 -5 -5 -10 -11 -10 -5 0 -7 5 -4 10 3 6 8 10 11 10
2 0 4 -4 4 -10z m139 -19 c15 -10 7 -31 -12 -31 -21 0 -40 17 -33 29 9 13 26
14 45 2z m-76 -40 c-3 -12 -11 -17 -19 -14 -19 7 -18 21 4 26 9 3 18 5 19 6 0
0 -1 -8 -4 -18z m-83 -1 c0 -5 -4 -10 -10 -10 -5 0 -10 5 -10 10 0 6 5 10 10
10 6 0 10 -4 10 -10z m270 -9 c0 -5 -6 -12 -12 -14 -7 -3 -3 -6 10 -6 26 -1
30 -31 4 -31 -10 0 -22 3 -26 8 -4 4 -12 7 -17 7 -9 0 -10 11 -2 33 6 14 43
17 43 3z m-220 -21 c0 -5 -4 -10 -10 -10 -5 0 -10 5 -10 10 0 6 5 10 10 10 6
0 10 -4 10 -10z m-80 -21 c0 -6 7 -9 15 -6 8 4 17 1 21 -5 4 -6 3 -8 -4 -4 -6
3 -13 2 -17 -4 -8 -12 -16 -12 -34 -1 -7 5 -10 14 -7 20 9 14 26 14 26 0z
m-165 -9 c-3 -5 -13 -10 -21 -10 -8 0 -12 5 -9 10 3 6 13 10 21 10 8 0 12 -4
9 -10z m102 -3 c7 0 13 -5 13 -10 0 -5 -7 -6 -16 -3 -10 4 -22 -1 -30 -11 -12
-16 -15 -16 -24 -3 -18 28 -12 41 17 34 15 -4 33 -7 40 -7z m2220 -49 c-3 -8
-6 -5 -6 6 -1 11 2 17 5 13 3 -3 4 -12 1 -19z m127 -33 c11 -8 14 -15 8 -15
-7 0 -12 -4 -12 -10 0 -5 10 -9 22 -7 17 2 22 -4 25 -32 l4 -33 -50 42 c-53
45 -59 55 -38 63 18 8 20 8 41 -8z m-161 -15 c-3 -11 -9 -20 -14 -20 -5 0 -9
9 -9 20 0 11 6 20 14 20 9 0 12 -7 9 -20z m-2893 0 c0 -5 -2 -10 -4 -10 -3 0
-8 5 -11 10 -3 6 -1 10 4 10 6 0 11 -4 11 -10z m-25 -20 c3 -5 1 -10 -4 -10
-6 0 -11 5 -11 10 0 6 2 10 4 10 3 0 8 -4 11 -10z m120 -6 c-13 -9 -16 -17 -9
-22 6 -4 13 -15 17 -24 7 -19 -21 -34 -37 -18 -7 7 -5 10 7 10 24 0 21 17 -4
25 -20 7 -20 7 2 26 12 10 27 19 33 19 6 0 2 -7 -9 -16z m3060 -24 c3 -5 -3
-10 -14 -10 -12 0 -21 5 -21 10 0 6 6 10 14 10 8 0 18 -4 21 -10z m-270 -19
c10 -17 -17 -61 -37 -61 -27 0 -60 19 -53 31 4 5 10 7 14 5 4 -3 14 4 21 15
15 20 45 26 55 10z m-109 -78 c-5 -5 -36 21 -36 31 0 2 8 6 18 8 16 3 31 -27
18 -39z m35 -60 c-10 -17 -10 -16 -11 3 0 23 13 41 18 25 2 -6 -1 -18 -7 -28z
m346 -25 c-3 -8 -6 -5 -6 6 -1 11 2 17 5 13 3 -3 4 -12 1 -19z m-127 -138 c0
-5 -4 -10 -10 -10 -5 0 -10 5 -10 10 0 6 5 10 10 10 6 0 10 -4 10 -10z m625
-69 c3 -5 1 -12 -5 -16 -5 -3 -10 1 -10 9 0 18 6 21 15 7z m735 -121 c0 -5 -4
-10 -10 -10 -5 0 -10 5 -10 10 0 6 5 10 10 10 6 0 10 -4 10 -10z m-687 -45
c-3 -9 -8 -14 -10 -11 -3 3 -2 9 2 15 9 16 15 13 8 -4z m646 -77 c11 -15 11
-18 -1 -18 -7 0 -14 10 -15 21 -1 12 -1 20 0 18 2 -2 9 -12 16 -21z m-26 -18
c3 -11 1 -18 -4 -14 -5 3 -9 12 -9 20 0 20 7 17 13 -6z m-40 -104 c-5 -24 -10
-26 -65 -17 -19 3 -5 19 25 29 45 14 45 15 40 -12z m34 -33 c7 -15 12 -28 10
-29 -6 -7 -25 13 -31 34 -10 31 6 28 21 -5z m106 13 c6 -16 -1 -26 -19 -26 -7
0 -10 8 -7 20 6 23 19 26 26 6z m-23 -66 c0 -5 -5 -10 -11 -10 -5 0 -7 5 -4
10 3 6 8 10 11 10 2 0 4 -4 4 -10z m50 1 c0 -5 -7 -12 -16 -15 -14 -5 -15 -4
-4 9 14 17 20 19 20 6z m-353 -66 c-4 -8 -11 -15 -17 -15 -7 0 -7 6 0 21 13
23 26 19 17 -6z m307 0 c-4 -8 -8 -15 -10 -15 -2 0 -4 7 -4 15 0 8 4 15 10 15
5 0 7 -7 4 -15z m46 -15 c0 -5 -4 -10 -10 -10 -5 0 -10 5 -10 10 0 6 5 10 10
10 6 0 10 -4 10 -10z m-64 -37 c-10 -10 -19 5 -10 18 6 11 8 11 12 0 2 -7 1
-15 -2 -18z m-251 -1 c-3 -3 -11 0 -18 7 -9 10 -8 11 6 5 10 -3 15 -9 12 -12z"/>
<path d="M2279 3706 c9 -11 9 -15 -1 -19 -7 -2 -11 -7 -8 -10 3 -3 18 0 35 7
l30 12 -34 12 c-28 10 -31 10 -22 -2z"/>
<path d="M3100 3460 c0 -5 5 -10 10 -10 6 0 10 5 10 10 0 6 -4 10 -10 10 -5 0
-10 -4 -10 -10z"/>
<path d="M2072 3208 c-33 -16 -41 -25 -37 -39 5 -14 -1 -22 -21 -29 -44 -17
-22 -20 27 -4 43 15 51 14 114 -5 37 -12 80 -21 95 -21 15 0 33 -6 39 -14 10
-12 8 -16 -11 -22 -13 -4 -29 -7 -35 -6 -7 2 -13 -2 -13 -8 0 -7 -7 -5 -16 4
-21 21 -31 20 -39 -4 -4 -13 -15 -20 -32 -20 -15 0 -23 -5 -20 -12 6 -19 93
-16 156 4 30 10 68 18 86 18 17 0 36 5 43 12 6 6 15 8 19 5 4 -4 -18 -33 -48
-63 -30 -31 -45 -52 -34 -47 131 64 184 129 185 226 0 31 0 31 -34 16 -20 -9
-29 -9 -41 1 -20 17 -32 5 -15 -15 10 -12 10 -19 2 -27 -8 -8 -20 -3 -43 20
-34 33 -100 54 -107 33 -2 -6 -8 -11 -13 -11 -4 0 -6 7 -3 15 4 10 0 15 -15
15 -22 0 -30 -20 -8 -21 6 0 1 -5 -12 -10 -29 -12 -38 -5 -21 16 20 25 -94 20
-148 -7z m277 -62 c9 -10 9 -16 1 -21 -16 -10 -40 2 -40 20 0 19 24 20 39 1z
m-81 -8 c-6 -18 -28 -21 -28 -4 0 9 7 16 16 16 9 0 14 -5 12 -12z m-63 -78 c3
-5 1 -10 -4 -10 -6 0 -11 5 -11 10 0 6 2 10 4 10 3 0 8 -4 11 -10z"/>
<path d="M2410 2887 c0 -21 20 -35 41 -30 13 4 18 11 15 20 -3 8 -6 17 -6 19
0 2 -11 4 -25 4 -14 0 -25 -6 -25 -13z"/>
<path d="M2592 2867 c-8 -10 -6 -16 9 -25 23 -15 59 -7 59 13 0 24 -50 34 -68
12z"/>
<path d="M2350 2830 c0 -5 5 -10 10 -10 6 0 10 5 10 10 0 6 -4 10 -10 10 -5 0
-10 -4 -10 -10z"/>
<path d="M2705 2790 c-3 -5 -1 -10 4 -10 6 0 11 5 11 10 0 6 -2 10 -4 10 -3 0
-8 -4 -11 -10z"/>
<path d="M2317 2784 c-3 -3 -3 -12 -1 -19 3 -7 -2 -15 -10 -18 -11 -4 -13 -1
-9 11 5 14 3 14 -16 -3 -12 -11 -36 -24 -54 -30 -21 -7 -31 -17 -32 -32 -1
-12 2 -20 6 -17 4 2 10 0 14 -6 11 -17 25 -11 25 11 0 15 6 20 23 18 12 -1 29
1 37 4 8 3 29 10 45 15 20 6 30 15 30 28 0 10 -6 18 -13 16 -7 -1 -15 5 -18
13 -6 16 -16 19 -27 9z"/>
<path d="M2648 2726 c-22 -16 -23 -26 -3 -26 8 0 15 -5 15 -11 0 -5 5 -7 10
-4 12 7 14 55 3 55 -5 0 -16 -7 -25 -14z"/>
<path d="M2717 2704 c-35 -19 -34 -24 8 -51 31 -20 36 -20 50 -7 21 21 18 36
-8 55 -20 15 -26 15 -50 3z"/>
<path d="M2336 2635 c7 -17 -11 -21 -21 -5 -8 12 -55 13 -55 1 0 -4 -16 -11
-35 -14 -48 -8 -86 -50 -79 -87 6 -28 -9 -49 -21 -30 -3 5 -10 10 -16 10 -14
0 -11 -27 6 -44 8 -8 15 -18 15 -23 0 -18 66 -48 119 -55 34 -4 101 4 96 11
-11 18 36 33 84 27 110 -16 171 -38 171 -64 0 -4 27 -13 60 -20 76 -14 124 -1
167 45 36 38 40 54 18 73 -8 7 -15 18 -15 24 0 17 -55 68 -63 59 -4 -3 -7 -2
-7 4 0 6 -21 18 -47 28 -27 10 -52 22 -58 26 -12 12 -95 12 -95 0 0 -12 25
-21 56 -21 14 0 27 -7 30 -15 4 -8 14 -15 23 -15 9 0 40 -21 69 -46 68 -60 69
-94 2 -99 -19 -2 -27 2 -26 13 0 9 -10 21 -22 28 -13 6 -29 17 -35 23 -15 15
-140 14 -155 -1 -9 -9 -16 -8 -30 6 -11 9 -43 21 -72 25 -44 7 -59 5 -83 -9
-16 -10 -36 -16 -43 -13 -8 3 -21 0 -29 -7 -20 -17 -45 -5 -45 20 0 34 84 97
132 99 50 1 114 14 123 23 7 8 6 9 -2 4 -6 -3 -14 -2 -18 4 -3 5 -20 7 -37 3
-22 -4 -33 -2 -40 10 -11 21 -29 22 -22 2z"/>
<path d="M3057 2504 c-8 -8 3 -34 14 -34 5 0 9 9 9 20 0 19 -11 26 -23 14z"/>
<path d="M2465 2250 c-3 -5 -1 -10 4 -10 6 0 11 5 11 10 0 6 -2 10 -4 10 -3 0
-8 -4 -11 -10z"/>
<path d="M2567 2193 c-14 -13 -6 -33 13 -33 11 0 20 4 20 9 0 13 -26 32 -33
24z"/>
<path d="M2490 2033 c0 -5 5 -15 10 -23 8 -12 10 -11 10 8 0 12 -4 22 -10 22
-5 0 -10 -3 -10 -7z"/>
<path d="M3210 945 c-10 -13 -9 -15 9 -15 11 0 21 4 21 9 0 18 -18 21 -30 6z"/>
<path d="M2941 4853 c0 -5 14 -19 32 -32 l32 -25 -29 32 c-31 33 -36 37 -35
25z"/>
<path d="M4645 4851 c14 -23 125 -100 125 -87 0 8 -6 17 -12 20 -7 3 -4 5 6 3
11 -1 20 -10 22 -20 4 -27 14 -34 24 -17 7 11 10 7 10 -16 0 -18 8 -38 20 -49
20 -18 20 -17 20 78 l0 97 -111 0 c-67 0 -108 -4 -104 -9z"/>
<path d="M3037 4770 c18 -19 34 -32 36 -29 2 2 -12 17 -32 33 l-36 30 32 -34z"/>
<path d="M3140 4687 c0 -3 27 -28 60 -57 33 -29 60 -50 60 -47 0 3 -27 28 -60
57 -33 29 -60 50 -60 47z"/>
<path d="M3290 4555 c13 -14 26 -25 28 -25 3 0 -5 11 -18 25 -13 14 -26 25
-28 25 -3 0 5 -11 18 -25z"/>
<path d="M3359 4496 c26 -28 31 -31 31 -17 0 5 -12 17 -27 26 l-28 18 24 -27z"/>
<path d="M3406 4458 c3 -7 45 -44 92 -83 48 -38 81 -61 73 -52 -21 27 -171
149 -165 135z"/>
<path d="M3865 4360 c3 -5 8 -10 11 -10 2 0 4 5 4 10 0 6 -5 10 -11 10 -5 0
-7 -4 -4 -10z"/>
<path d="M3635 4265 c22 -20 81 -71 130 -112 50 -41 124 -104 165 -138 127
-107 214 -179 235 -195 19 -14 19 -14 6 3 -7 9 -72 66 -144 125 -71 59 -172
143 -224 187 -52 44 -120 99 -151 123 -51 39 -53 40 -17 7z"/>
<path d="M4334 3971 c20 -22 26 -25 26 -13 0 4 -10 13 -22 21 -23 14 -23 14
-4 -8z"/>
<path d="M4191 3804 c0 -9 137 -124 182 -153 20 -13 20 -13 7 0 -12 13 -103
90 -172 148 -10 8 -18 10 -17 5z"/>
<path d="M4416 3613 c10 -10 42 -36 69 -58 28 -21 52 -42 55 -45 11 -14 257
-217 290 -239 l35 -24 -34 36 c-19 21 -41 37 -48 37 -7 0 -13 4 -13 8 0 5 -42
42 -92 82 -51 41 -102 82 -113 91 -95 83 -151 129 -159 129 -6 0 -1 -8 10 -17z"/>
<path d="M1980 1715 c0 -8 4 -15 10 -15 5 0 7 7 4 15 -4 8 -8 15 -10 15 -2 0
-4 -7 -4 -15z"/>
<path d="M2040 1672 c0 -5 7 -9 15 -9 8 0 15 4 15 9 0 4 -7 8 -15 8 -8 0 -15
-4 -15 -8z"/>
<path d="M2457 1653 c-4 -3 -7 -11 -7 -17 0 -6 5 -5 12 2 6 6 9 14 7 17 -3 3
-9 2 -12 -2z"/>
<path d="M4735 1610 c3 -5 8 -10 11 -10 2 0 4 5 4 10 0 6 -5 10 -11 10 -5 0
-7 -4 -4 -10z"/>
<path d="M4570 1470 c0 -5 5 -10 11 -10 5 0 7 5 4 10 -3 6 -8 10 -11 10 -2 0
-4 -4 -4 -10z"/>
<path d="M4070 1460 c-8 -5 -10 -10 -5 -10 6 0 17 5 25 10 8 5 11 10 5 10 -5
0 -17 -5 -25 -10z"/>
<path d="M3610 1425 c0 -8 2 -15 4 -15 2 0 6 7 10 15 3 8 1 15 -4 15 -6 0 -10
-7 -10 -15z"/>
<path d="M4380 1381 c0 -5 5 -13 10 -16 6 -3 10 -2 10 4 0 5 -4 13 -10 16 -5
3 -10 2 -10 -4z"/>
<path d="M4725 1370 c3 -5 8 -10 11 -10 2 0 4 5 4 10 0 6 -5 10 -11 10 -5 0
-7 -4 -4 -10z"/>
<path d="M4310 1349 c0 -5 5 -7 10 -4 6 3 10 8 10 11 0 2 -4 4 -10 4 -5 0 -10
-5 -10 -11z"/>
<path d="M4535 1320 c-3 -5 -1 -10 4 -10 6 0 11 5 11 10 0 6 -2 10 -4 10 -3 0
-8 -4 -11 -10z"/>
<path d="M4745 1250 c-3 -5 -2 -10 4 -10 5 0 13 5 16 10 3 6 2 10 -4 10 -5 0
-13 -4 -16 -10z"/>
<path d="M4110 1235 c-11 -13 -11 -18 0 -28 10 -10 12 -9 7 5 -3 9 -1 19 6 21
7 2 9 7 6 11 -3 4 -12 -1 -19 -9z"/>
<path d="M1610 1220 c0 -5 5 -10 10 -10 6 0 10 5 10 10 0 6 -4 10 -10 10 -5 0
-10 -4 -10 -10z"/>
<path d="M3825 1200 c-3 -5 -1 -10 4 -10 6 0 11 5 11 10 0 6 -2 10 -4 10 -3 0
-8 -4 -11 -10z"/>
<path d="M1600 1185 c12 -15 30 -12 30 6 0 5 -10 9 -21 9 -18 0 -19 -2 -9 -15z"/>
<path d="M4075 1180 c-3 -6 1 -7 9 -4 18 7 21 14 7 14 -6 0 -13 -4 -16 -10z"/>
<path d="M3926 1167 c3 -10 9 -15 12 -12 3 3 0 11 -7 18 -10 9 -11 8 -5 -6z"/>
<path d="M4250 1165 c0 -8 5 -15 10 -15 6 0 10 7 10 15 0 8 -4 15 -10 15 -5 0
-10 -7 -10 -15z"/>
<path d="M1630 1166 c0 -2 8 -10 18 -17 15 -13 16 -12 3 4 -13 16 -21 21 -21
13z"/>
<path d="M4300 1130 c-9 -6 -10 -10 -3 -10 6 0 15 5 18 10 8 12 4 12 -15 0z"/>
<path d="M4645 1130 c4 -6 11 -8 16 -5 14 9 11 15 -7 15 -8 0 -12 -5 -9 -10z"/>
<path d="M1650 1105 c-19 -19 -22 -27 -12 -37 9 -9 12 -9 12 0 0 7 7 12 15 12
9 0 15 9 15 25 0 30 1 30 -30 0z"/>
<path d="M4700 1096 c0 -8 6 -16 14 -19 10 -4 12 0 9 14 -6 22 -23 26 -23 5z"/>
<path d="M3975 1090 c-3 -5 -1 -10 4 -10 6 0 11 5 11 10 0 6 -2 10 -4 10 -3 0
-8 -4 -11 -10z"/>
<path d="M4250 1085 c0 -8 5 -15 10 -15 6 0 10 7 10 15 0 8 -4 15 -10 15 -5 0
-10 -7 -10 -15z"/>
<path d="M811 1077 c-8 -10 -7 -14 4 -14 8 0 15 6 15 14 0 7 -2 13 -4 13 -2 0
-9 -6 -15 -13z"/>
<path d="M4560 1084 c8 -4 21 -14 28 -23 13 -14 13 -14 10 4 -2 13 -12 21 -28
22 -14 1 -18 0 -10 -3z"/>
<path d="M4770 1080 c-13 -9 -13 -10 0 -10 8 0 22 5 30 10 13 9 13 10 0 10 -8
0 -22 -5 -30 -10z"/>
<path d="M3847 1069 c7 -7 15 -10 18 -7 3 3 -2 9 -12 12 -14 6 -15 5 -6 -5z"/>
<path d="M1060 1061 c0 -5 7 -11 14 -14 10 -4 13 -1 9 9 -6 15 -23 19 -23 5z"/>
<path d="M1570 1056 c0 -9 5 -16 10 -16 6 0 10 4 10 9 0 6 -4 13 -10 16 -5 3
-10 -1 -10 -9z"/>
<path d="M1280 1046 c0 -9 5 -16 10 -16 6 0 10 4 10 9 0 6 -4 13 -10 16 -5 3
-10 -1 -10 -9z"/>
<path d="M865 1041 c-3 -5 -1 -12 5 -16 5 -3 10 1 10 9 0 18 -6 21 -15 7z"/>
<path d="M4290 1039 c0 -5 5 -7 10 -4 6 3 10 8 10 11 0 2 -4 4 -10 4 -5 0 -10
-5 -10 -11z"/>
<path d="M1390 1030 c-8 -5 -12 -12 -9 -15 8 -8 39 5 39 16 0 11 -11 11 -30
-1z"/>
<path d="M4447 1011 c3 -10 0 -22 -6 -25 -6 -4 -11 -16 -11 -27 0 -16 -5 -19
-20 -14 -11 4 -20 2 -20 -4 0 -6 12 -11 26 -11 15 0 35 -10 45 -22 22 -24 23
-21 9 17 -9 23 -8 26 5 21 8 -3 15 -1 15 4 0 6 -7 10 -15 10 -18 0 -20 27 -2
33 9 3 9 7 -2 20 -18 23 -30 21 -24 -2z"/>
<path d="M960 1002 c0 -14 -7 -19 -26 -19 -14 0 -31 -6 -37 -12 -15 -15 13
-15 64 1 44 13 48 22 19 38 -17 9 -20 8 -20 -8z"/>
<path d="M1125 1010 c-3 -6 1 -7 9 -4 18 7 21 14 7 14 -6 0 -13 -4 -16 -10z"/>
<path d="M1520 1004 c0 -8 5 -12 10 -9 6 4 8 11 5 16 -9 14 -15 11 -15 -7z"/>
<path d="M3987 1013 c-12 -11 -8 -31 7 -36 8 -3 17 0 20 8 3 10 0 12 -11 8
-12 -5 -15 -2 -10 10 7 18 5 21 -6 10z"/>
<path d="M4345 1010 c-3 -6 1 -7 9 -4 18 7 21 14 7 14 -6 0 -13 -4 -16 -10z"/>
<path d="M4555 1010 c-3 -5 -2 -10 4 -10 5 0 13 5 16 10 3 6 2 10 -4 10 -5 0
-13 -4 -16 -10z"/>
<path d="M1260 1000 c0 -5 5 -10 11 -10 5 0 7 5 4 10 -3 6 -8 10 -11 10 -2 0
-4 -4 -4 -10z"/>
<path d="M1660 1001 c0 -6 5 -13 10 -16 6 -3 10 1 10 9 0 9 -4 16 -10 16 -5 0
-10 -4 -10 -9z"/>
<path d="M4150 998 c0 -9 -3 -25 -6 -35 -6 -17 -6 -17 11 -2 13 13 15 21 6 35
-9 17 -10 17 -11 2z"/>
<path d="M4736 992 c-2 -4 -1 -14 5 -22 7 -12 9 -10 9 8 0 23 -5 28 -14 14z"/>
<path d="M1072 968 c5 -15 28 -23 28 -10 0 5 -7 13 -16 16 -10 4 -14 1 -12 -6z"/>
<path d="M1190 970 c0 -5 7 -7 15 -4 8 4 15 8 15 10 0 2 -7 4 -15 4 -8 0 -15
-4 -15 -10z"/>
<path d="M4040 970 c-13 -8 -12 -10 3 -10 9 0 17 5 17 10 0 12 -1 12 -20 0z"/>
<path d="M4228 969 c-12 -6 -16 -19 -13 -39 3 -23 0 -28 -12 -23 -11 4 -14 2
-11 -8 3 -8 12 -15 22 -17 14 -3 16 3 12 36 -5 45 13 62 36 35 10 -13 10 -17
1 -20 -7 -3 -13 -9 -13 -14 0 -5 9 -4 19 3 18 11 18 13 3 35 -19 26 -21 26
-44 12z"/>
<path d="M4650 970 c0 -5 -8 -7 -17 -3 -16 6 -16 4 1 -15 24 -27 24 -27 24 3
0 14 -2 25 -4 25 -2 0 -4 -4 -4 -10z"/>
<path d="M4830 972 c0 -12 19 -26 26 -19 2 2 -2 10 -11 17 -9 8 -15 8 -15 2z"/>
<path d="M4320 951 c-5 -11 -7 -22 -2 -25 4 -2 12 7 19 20 13 28 -2 33 -17 5z"/>
<path d="M980 951 c0 -5 9 -7 20 -4 11 3 20 7 20 9 0 2 -9 4 -20 4 -11 0 -20
-4 -20 -9z"/>
<path d="M4685 950 c-3 -5 -1 -10 4 -10 6 0 11 5 11 10 0 6 -2 10 -4 10 -3 0
-8 -4 -11 -10z"/>
<path d="M1635 940 c3 -5 8 -10 11 -10 2 0 4 5 4 10 0 6 -5 10 -11 10 -5 0 -7
-4 -4 -10z"/>
<path d="M4745 941 c-3 -5 -1 -12 5 -16 5 -3 10 1 10 9 0 18 -6 21 -15 7z"/>
<path d="M4815 941 c-3 -5 -1 -12 5 -16 5 -3 10 1 10 9 0 18 -6 21 -15 7z"/>
<path d="M4356 925 c4 -8 10 -12 15 -9 14 8 10 24 -6 24 -9 0 -12 -6 -9 -15z"/>
<path d="M4527 926 c-4 -10 -1 -13 9 -9 7 3 14 9 14 14 0 14 -17 10 -23 -5z"/>
<path d="M1735 900 l-17 -35 22 23 c12 12 20 28 17 35 -2 7 -12 -4 -22 -23z"/>
<path d="M4656 905 c4 -8 12 -15 19 -15 8 0 17 -10 21 -22 9 -30 25 -40 41
-26 14 12 17 1 7 -26 -8 -21 -24 -20 -39 1 -7 10 -17 13 -25 8 -10 -6 -9 -10
4 -17 9 -5 16 -15 16 -23 0 -7 6 -12 13 -11 16 2 55 25 43 26 -5 0 -3 6 3 14
17 20 -6 56 -33 53 -11 -1 -21 3 -21 10 0 12 -33 42 -47 43 -4 0 -5 -7 -2 -15z"/>
<path d="M310 900 c0 -5 5 -10 11 -10 5 0 7 5 4 10 -3 6 -8 10 -11 10 -2 0 -4
-4 -4 -10z"/>
<path d="M4393 900 c2 -8 0 -25 -4 -37 -5 -13 -4 -25 2 -29 6 -3 8 -18 6 -32
-2 -15 -2 -21 0 -14 3 8 11 11 19 8 18 -7 18 9 -1 28 -21 20 -20 43 0 26 20
-17 30 -7 12 11 -7 8 -19 23 -26 34 -7 11 -10 13 -8 5z"/>
<path d="M3027 893 c-22 -6 -16 -29 6 -25 11 2 15 -2 11 -13 -3 -8 -2 -15 4
-15 5 0 12 7 16 15 3 8 1 15 -5 15 -6 0 -9 7 -5 15 6 15 4 16 -27 8z"/>
<path d="M4298 870 c-12 -13 -13 -20 -4 -23 6 -3 17 6 23 19 13 28 5 30 -19 4z"/>
<path d="M4490 881 c0 -17 18 -21 24 -6 3 9 0 15 -9 15 -8 0 -15 -4 -15 -9z"/>
<path d="M4827 883 c-12 -12 -7 -19 13 -19 11 0 20 6 20 13 0 14 -22 18 -33 6z"/>
<path d="M4261 864 c0 -11 3 -14 6 -6 3 7 2 16 -1 19 -3 4 -6 -2 -5 -13z"/>
<path d="M4455 870 c-3 -5 -1 -10 4 -10 6 0 11 5 11 10 0 6 -2 10 -4 10 -3 0
-8 -4 -11 -10z"/>
<path d="M4590 873 c0 -7 -10 -13 -22 -13 -19 -1 -17 -3 11 -15 18 -8 43 -15
55 -14 l21 0 -22 9 c-12 5 -26 17 -32 27 -6 10 -11 12 -11 6z"/>
<path d="M4205 840 c-15 -29 -11 -38 10 -22 10 7 19 52 10 52 -2 0 -11 -13
-20 -30z"/>
<path d="M2971 851 c-16 -10 -6 -31 15 -31 16 0 18 9 6 27 -4 7 -13 9 -21 4z"/>
<path d="M235 840 c-3 -6 2 -18 11 -28 17 -16 18 -16 11 1 -3 9 -2 17 3 17 6
0 10 -6 10 -12 0 -9 3 -8 10 2 6 9 5 17 -3 22 -17 11 -35 10 -42 -2z"/>
<path d="M1685 841 c-3 -5 -1 -12 5 -16 5 -3 10 1 10 9 0 18 -6 21 -15 7z"/>
<path d="M4335 840 c3 -5 8 -10 11 -10 2 0 4 5 4 10 0 6 -5 10 -11 10 -5 0 -7
-4 -4 -10z"/>
<path d="M4522 821 c-1 -16 2 -32 8 -36 5 -3 9 9 8 30 -2 42 -13 47 -16 6z"/>
<path d="M4240 829 c0 -5 5 -7 10 -4 6 3 10 8 10 11 0 2 -4 4 -10 4 -5 0 -10
-5 -10 -11z"/>
<path d="M3610 815 c0 -9 5 -15 11 -13 6 2 11 8 11 13 0 5 -5 11 -11 13 -6 2
-11 -4 -11 -13z"/>
<path d="M2940 811 c0 -5 5 -13 10 -16 6 -3 10 -2 10 4 0 5 -4 13 -10 16 -5 3
-10 2 -10 -4z"/>
<path d="M4287 795 c20 -27 43 -33 43 -10 0 9 -6 12 -15 9 -8 -4 -17 1 -21 10
-3 9 -10 16 -16 16 -5 0 -1 -11 9 -25z"/>
<path d="M4830 804 c0 -10 -6 -14 -15 -10 -18 6 -18 5 -5 -29 5 -14 14 -23 20
-20 6 3 7 -1 4 -9 -4 -10 -1 -16 8 -16 9 0 14 12 15 33 1 17 -1 26 -3 20 -7
-16 -34 -17 -34 -2 0 6 9 13 20 16 24 6 26 19 5 27 -9 3 -15 0 -15 -10z"/>
<path d="M3083 788 c-2 -16 1 -18 10 -9 7 7 8 14 1 21 -6 6 -10 2 -11 -12z"/>
<path d="M1730 780 c0 -5 5 -10 10 -10 6 0 10 5 10 10 0 6 -4 10 -10 10 -5 0
-10 -4 -10 -10z"/>
<path d="M3658 784 c-5 -4 -8 -16 -8 -26 0 -10 -4 -19 -10 -19 -5 -1 -16 -2
-22 -3 -7 0 -13 -6 -13 -13 0 -6 -3 -15 -7 -19 -9 -9 10 -34 26 -34 6 0 5 4
-3 9 -10 7 -11 13 -2 27 7 14 10 15 11 4 0 -10 5 -7 16 8 15 22 41 22 28 0 -4
-6 -2 -8 3 -5 17 11 23 47 8 47 -8 0 -15 7 -17 16 -2 9 -6 12 -10 8z"/>
<path d="M4553 770 c-2 -21 11 -27 22 -10 4 6 11 8 16 5 5 -4 9 -1 9 4 0 6 -4
11 -9 11 -5 0 -16 2 -23 5 -9 4 -14 -2 -15 -15z"/>
<path d="M3555 770 c-3 -5 -1 -10 4 -10 6 0 11 5 11 10 0 6 -2 10 -4 10 -3 0
-8 -4 -11 -10z"/>
<path d="M3600 765 c0 -8 2 -15 4 -15 2 0 6 7 10 15 3 8 1 15 -4 15 -6 0 -10
-7 -10 -15z"/>
<path d="M4430 750 c0 -5 5 -10 10 -10 6 0 10 5 10 10 0 6 -4 10 -10 10 -5 0
-10 -4 -10 -10z"/>
<path d="M4720 750 c0 -5 5 -10 10 -10 6 0 10 5 10 10 0 6 -4 10 -10 10 -5 0
-10 -4 -10 -10z"/>
<path d="M4388 718 c-10 -12 -18 -26 -18 -31 0 -17 49 29 50 46 0 14 -15 7
-32 -15z"/>
<path d="M4533 711 c-9 -15 -9 -20 0 -24 7 -3 18 6 24 19 14 30 -6 34 -24 5z"/>
<path d="M4470 710 c0 -5 5 -10 10 -10 6 0 10 5 10 10 0 6 -4 10 -10 10 -5 0
-10 -4 -10 -10z"/>
<path d="M4675 712 c-16 -11 -16 -38 -1 -51 12 -10 17 -8 25 8 6 11 8 27 5 35
-7 18 -14 20 -29 8z"/>
<path d="M4730 707 c0 -12 34 -47 45 -47 3 0 1 8 -4 18 -7 13 -6 23 1 30 9 9
5 12 -15 12 -15 0 -27 -6 -27 -13z"/>
<path d="M4330 700 c0 -5 5 -10 10 -10 6 0 10 5 10 10 0 6 -4 10 -10 10 -5 0
-10 -4 -10 -10z"/>
<path d="M4440 700 c0 -5 5 -10 11 -10 5 0 7 5 4 10 -3 6 -8 10 -11 10 -2 0
-4 -4 -4 -10z"/>
<path d="M4626 692 c-3 -6 -1 -14 5 -17 14 -9 20 -2 10 14 -6 8 -11 9 -15 3z"/>
<path d="M4833 688 c-13 -6 -23 -14 -23 -19 0 -12 38 2 44 17 3 8 4 14 3 13
-1 0 -12 -5 -24 -11z"/>
<path d="M3811 674 c0 -11 3 -14 6 -6 3 7 2 16 -1 19 -3 4 -6 -2 -5 -13z"/>
<path d="M3278 673 c7 -3 16 -2 19 1 4 3 -2 6 -13 5 -11 0 -14 -3 -6 -6z"/>
<path d="M4381 657 c-10 -20 -9 -30 6 -65 10 -23 21 -42 25 -42 12 0 10 13
-11 56 -16 32 -17 40 -5 42 8 2 14 10 14 18 0 21 -15 17 -29 -9z"/>
<path d="M4710 664 c0 -8 5 -12 10 -9 6 3 10 10 10 16 0 5 -4 9 -10 9 -5 0
-10 -7 -10 -16z"/>
<path d="M1826 663 c5 -5 12 -12 16 -18 4 -6 8 -2 8 8 0 9 -7 17 -17 17 -9 0
-12 -3 -7 -7z"/>
<path d="M3555 650 c3 -5 8 -10 11 -10 2 0 4 5 4 10 0 6 -5 10 -11 10 -5 0 -7
-4 -4 -10z"/>
<path d="M3748 648 c5 -5 16 -8 23 -6 8 3 3 7 -10 11 -17 4 -21 3 -13 -5z"/>
<path d="M4435 650 c-3 -5 -2 -10 3 -10 5 0 19 -9 31 -19 24 -21 20 -43 -7
-39 -9 2 -18 -5 -20 -15 -4 -17 -2 -18 28 -2 23 12 31 22 27 36 -6 24 2 24 19
2 13 -17 15 -17 30 2 8 11 21 19 27 18 7 -2 14 7 14 19 2 16 0 19 -6 9 -5 -7
-19 -11 -32 -10 -13 2 -30 0 -37 -4 -15 -10 -52 0 -52 14 0 12 -17 12 -25 -1z
m105 -35 c0 -8 -4 -15 -10 -15 -5 0 -10 7 -10 15 0 8 5 15 10 15 6 0 10 -7 10
-15z"/>
<path d="M4650 644 c0 -8 5 -12 10 -9 6 3 10 10 10 16 0 5 -4 9 -10 9 -5 0
-10 -7 -10 -16z"/>
<path d="M4735 640 c4 -6 11 -8 16 -5 14 9 11 15 -7 15 -8 0 -12 -5 -9 -10z"/>
<path d="M254 626 c-8 -22 3 -33 18 -18 9 9 9 15 0 24 -9 9 -13 7 -18 -6z"/>
<path d="M3863 633 c-22 -4 -33 -33 -13 -33 6 0 10 5 10 10 0 6 7 10 15 10 8
0 15 5 15 10 0 6 -1 9 -2 9 -2 -1 -13 -4 -25 -6z"/>
<path d="M4615 632 c-22 -16 -15 -32 10 -26 18 4 25 2 25 -9 0 -8 7 -17 15
-21 24 -9 17 18 -10 42 -28 25 -27 24 -40 14z"/>
<path d="M4690 633 c1 -14 30 -47 36 -41 3 4 -4 16 -15 27 -12 12 -21 18 -21
14z"/>
<path d="M4770 630 c0 -5 5 -10 10 -10 6 0 10 5 10 10 0 6 -4 10 -10 10 -5 0
-10 -4 -10 -10z"/>
<path d="M2213 615 c0 -8 4 -12 9 -9 4 3 8 -4 8 -15 0 -11 4 -22 9 -25 13 -8
10 48 -3 56 -17 11 -23 10 -23 -7z"/>
<path d="M2270 605 c-12 -14 -10 -15 13 -10 17 5 27 3 27 -4 0 -6 11 -11 25
-11 14 0 25 5 25 11 0 6 -7 8 -16 5 -8 -3 -25 1 -38 9 -21 14 -25 14 -36 0z"/>
<path d="M4430 610 c0 -5 5 -10 11 -10 5 0 7 5 4 10 -3 6 -8 10 -11 10 -2 0
-4 -4 -4 -10z"/>
<path d="M4590 580 c-8 -5 -11 -12 -7 -16 4 -4 13 -2 19 4 15 15 7 24 -12 12z"/>
<path d="M4775 580 c3 -5 8 -10 11 -10 2 0 4 5 4 10 0 6 -5 10 -11 10 -5 0 -7
-4 -4 -10z"/>
<path d="M4847 570 c3 -11 7 -20 9 -20 2 0 4 9 4 20 0 11 -4 20 -9 20 -5 0 -7
-9 -4 -20z"/>
<path d="M4490 560 c-16 -13 -20 -19 -10 -19 28 1 49 14 42 26 -5 8 -14 6 -32
-7z"/>
<path d="M4631 564 c0 -11 3 -14 6 -6 3 7 2 16 -1 19 -3 4 -6 -2 -5 -13z"/>
<path d="M2070 550 c0 -5 5 -10 10 -10 6 0 10 5 10 10 0 6 -4 10 -10 10 -5 0
-10 -4 -10 -10z"/>
<path d="M4690 541 c0 -8 -7 -11 -17 -7 -15 5 -15 3 1 -9 24 -18 48 -3 28 17
-9 9 -12 9 -12 -1z"/>
<path d="M2120 480 c0 -5 5 -10 11 -10 5 0 7 5 4 10 -3 6 -8 10 -11 10 -2 0
-4 -4 -4 -10z"/>
<path d="M2215 480 c-3 -5 1 -10 10 -10 9 0 13 5 10 10 -3 6 -8 10 -10 10 -2
0 -7 -4 -10 -10z"/>
<path d="M4565 460 c4 -6 11 -8 16 -5 14 9 11 15 -7 15 -8 0 -12 -5 -9 -10z"/>
<path d="M2428 453 c7 -3 16 -2 19 1 4 3 -2 6 -13 5 -11 0 -14 -3 -6 -6z"/>
<path d="M4660 444 c0 -8 5 -12 10 -9 6 3 10 10 10 16 0 5 -4 9 -10 9 -5 0
-10 -7 -10 -16z"/>
<path d="M4846 445 c4 -8 8 -15 10 -15 2 0 4 7 4 15 0 8 -4 15 -10 15 -5 0 -7
-7 -4 -15z"/>
<path d="M4803 435 c-17 -19 -17 -20 12 -21 28 -2 28 -2 19 20 -7 19 -15 20
-31 1z"/>
<path d="M4516 414 c-11 -7 -17 -16 -15 -19 3 -3 14 2 25 9 10 8 17 17 14 19
-3 3 -14 -1 -24 -9z"/>
<path d="M3368 398 c-19 -19 -13 -24 11 -9 7 5 12 13 10 18 -2 5 -12 1 -21 -9z"/>
<path d="M4620 353 c0 -13 5 -23 10 -23 13 0 13 11 0 30 -8 12 -10 11 -10 -7z"/>
<path d="M4550 344 c0 -8 5 -12 10 -9 6 4 8 11 5 16 -9 14 -15 11 -15 -7z"/>
<path d="M4234 336 c-3 -9 -3 -28 2 -44 5 -20 8 -23 11 -9 3 9 8 17 12 17 12
0 6 43 -7 48 -7 2 -15 -3 -18 -12z"/>
<path d="M4820 235 c0 -7 7 -18 17 -23 9 -6 14 -16 10 -25 -3 -9 -2 -19 3 -22
6 -4 10 11 10 33 0 27 -5 42 -16 46 -22 8 -24 8 -24 -9z"/>
<path d="M4019 208 c-3 -22 -1 -34 4 -29 5 5 7 21 5 37 -3 27 -4 26 -9 -8z"/>
<path d="M4845 120 c3 -5 8 -10 11 -10 2 0 4 5 4 10 0 6 -5 10 -11 10 -5 0 -7
-4 -4 -10z"/>
</g>
</svg>
